<svg width="19" height="16" viewBox="0 0 19 16" fill="none" xmlns="http://www.w3.org/2000/svg">
<path fill-rule="evenodd" clip-rule="evenodd" d="M2.46609 3.71021C2.47741 3.59901 2.46231 3.48671 2.42203 3.38245C2.38175 3.27819 2.31742 3.18494 2.23428 3.11023L0.520996 1.04504V0.736816H5.84299L9.95639 9.75842L13.5727 0.736816H18.6461V1.04504L17.1806 2.45013C17.1186 2.49747 17.0708 2.56074 17.0421 2.63324C17.0134 2.70573 17.0049 2.78472 17.0177 2.86163V13.1859C17.005 13.2627 17.0135 13.3415 17.0422 13.4139C17.0709 13.4862 17.1187 13.5494 17.1806 13.5966L18.6117 15.0016V15.3099H11.4127V15.0016L12.8958 13.5622C13.0412 13.4168 13.0412 13.374 13.0412 13.1514V4.8067L8.91928 15.2767H8.36249L3.5625 4.8067V11.8236C3.54285 11.9691 3.55653 12.1171 3.60251 12.2565C3.64849 12.3959 3.72554 12.5231 3.82788 12.6283L5.7562 14.9672V15.2762H0.288879V14.9672L2.2171 12.6283C2.31877 12.5231 2.39425 12.3954 2.43744 12.2556C2.48063 12.1158 2.4903 11.9678 2.4657 11.8236L2.46609 3.71021Z" fill="white"/>
</svg>
