<svg width="24" height="21" viewBox="0 0 24 21" fill="none" xmlns="http://www.w3.org/2000/svg">
<path d="M22.9161 0.566386L0.666083 8.75944C0.578481 8.79171 0.50258 8.84946 0.448187 8.92533C0.393794 9.00121 0.363433 9.09165 0.360999 9.18498C0.358564 9.2783 0.384182 9.37023 0.434546 9.44883C0.48491 9.52744 0.557699 9.58911 0.6435 9.6259L5.9191 11.8868L8.4318 18.9357C8.45783 19.0085 8.5057 19.0715 8.56888 19.1161C8.63207 19.1606 8.70748 19.1846 8.7848 19.1847H8.80259C8.8768 19.1792 8.9477 19.1517 9.0062 19.1057L9.0048 19.113L9.02088 19.1001L9.02338 19.098L13.0192 15.8806L10.3772 13.9859L18.7396 19.9831C18.8024 20.0282 18.8754 20.0568 18.952 20.0667C19.0287 20.0765 19.1066 20.0672 19.1787 20.0395C19.2508 20.0118 19.315 19.9666 19.3653 19.9079C19.4156 19.8493 19.4506 19.7791 19.4671 19.7036L23.5331 1.10362C23.5509 1.0219 23.5465 0.936873 23.5202 0.857463C23.494 0.778053 23.4468 0.707189 23.3837 0.652263C23.3206 0.597337 23.2439 0.56037 23.1617 0.545268C23.0794 0.530165 22.9946 0.537447 22.9161 0.566386ZM8.72138 17.5157L6.63261 11.6569L18.9669 4.10002L9.78098 13.4883C9.73454 13.5362 9.70156 13.5955 9.68531 13.6602L8.72138 17.5157Z" fill="white"/>
</svg>
