<svg width="24" height="18" viewBox="0 0 24 18" fill="none" xmlns="http://www.w3.org/2000/svg">
<path d="M20.9112 2.71484C19.2891 1.44793 17.3145 0.714526 15.2588 0.615448L14.9762 0.938446C16.8146 1.41633 18.5288 2.28377 20.0027 3.48196C18.1183 2.46054 16.0557 1.80958 13.9264 1.56427C12.5704 1.41471 11.2014 1.42812 9.84866 1.60425C9.73332 1.60759 9.61848 1.62098 9.50546 1.64426C7.9226 1.83484 6.37766 2.26361 4.92297 2.91605C4.17607 3.23905 3.73196 3.48126 3.73196 3.48126C5.27507 2.21971 7.08298 1.32266 9.02097 0.856964L8.81906 0.614746C6.76385 0.716556 4.79003 1.44966 3.16666 2.71414C1.32153 6.33134 0.327274 10.3223 0.259766 14.3824C0.259766 14.3824 1.95548 17.2892 6.41678 17.4305C6.41678 17.4305 7.16378 16.5424 7.76938 15.7753C6.35411 15.4201 5.10566 14.5854 4.23657 13.4134C4.23657 13.4134 4.43848 13.5547 4.80188 13.7566C4.82188 13.7566 4.84187 13.7766 4.88257 13.7966C4.94317 13.8366 5.00377 13.8572 5.06427 13.8976C5.53919 14.1598 6.03158 14.3891 6.53796 14.5839C7.49543 14.9722 8.48963 15.2631 9.50546 15.452C11.2319 15.7835 13.005 15.7903 14.7339 15.472C15.7374 15.2866 16.7186 14.9956 17.661 14.6039C18.4773 14.2958 19.2562 13.8962 19.9826 13.4128C19.081 14.6101 17.7879 15.4531 16.3287 15.7949C16.9343 16.5419 17.661 17.4099 17.661 17.4099C18.8555 17.4399 20.0395 17.1801 21.1118 16.6528C22.184 16.1254 23.1126 15.3463 23.8181 14.3819C23.7504 10.3222 22.7561 6.33167 20.9112 2.71484ZM8.27408 12.5056C7.71403 12.4634 7.1906 12.2112 6.80869 11.7994C6.42677 11.3876 6.21457 10.8467 6.21457 10.2851C6.21457 9.72343 6.42677 9.18254 6.80869 8.77075C7.1906 8.35896 7.71403 8.10667 8.27408 8.06445C8.83412 8.10667 9.35752 8.35896 9.73944 8.77075C10.1214 9.18254 10.3336 9.72343 10.3336 10.2851C10.3336 10.8467 10.1214 11.3876 9.73944 11.7994C9.35752 12.2112 8.83412 12.4634 8.27408 12.5056ZM15.6423 12.5056C15.196 12.5394 14.7498 12.4378 14.3621 12.2142C13.9743 11.9906 13.663 11.6554 13.4686 11.2523C13.2742 10.8491 13.2058 10.3967 13.2723 9.95404C13.3388 9.51142 13.5372 9.09914 13.8416 8.77094C14.1459 8.44273 14.5421 8.21384 14.9784 8.11414C15.4148 8.01443 15.871 8.04852 16.2877 8.21198C16.7044 8.37543 17.0621 8.66066 17.3143 9.03046C17.5665 9.40025 17.7014 9.83747 17.7014 10.2851C17.7217 10.8523 17.5164 11.4044 17.1304 11.8206C16.7445 12.2368 16.2094 12.4831 15.6423 12.5056Z" fill="white"/>
</svg>
