<svg width="26" height="26" viewBox="0 0 26 26" fill="none" xmlns="http://www.w3.org/2000/svg">
<path fill-rule="evenodd" clip-rule="evenodd" d="M13.0694 0.510925C10.0227 0.511337 7.07568 1.59585 4.75551 3.57037C2.43534 5.54489 0.893464 8.28056 0.405811 11.2879C-0.0818408 14.2952 0.516556 17.378 2.09389 19.9845C3.67123 22.591 6.12456 24.5512 9.01494 25.5143C9.65644 25.632 9.89055 25.2359 9.89055 24.8959C9.89055 24.5913 9.87946 23.7845 9.87316 22.7139C6.30446 23.4892 5.55144 20.994 5.55144 20.994C5.31568 20.2185 4.81044 19.5529 4.12694 19.1174C2.96214 18.3213 4.21517 18.3373 4.21517 18.3373C4.62178 18.3935 5.01017 18.5419 5.35073 18.771C5.69129 19.0001 5.97501 19.3041 6.18026 19.6595C6.35404 19.9761 6.58885 20.255 6.87111 20.4802C7.15338 20.7054 7.47748 20.8724 7.8247 20.9715C8.17191 21.0706 8.53536 21.1 8.89397 21.0577C9.25258 21.0155 9.59926 20.9026 9.91396 20.7255C9.97251 20.075 10.2614 19.4668 10.7286 19.0104C7.87967 18.6866 4.88466 17.5859 4.88466 12.6696C4.866 11.395 5.33891 10.1621 6.20525 9.22693C5.81383 8.12036 5.85878 6.90626 6.33095 5.83167C6.33095 5.83167 7.40826 5.48665 9.85906 7.14685C11.9616 6.57112 14.1802 6.57112 16.2828 7.14685C18.7322 5.48685 19.8074 5.83167 19.8074 5.83167C20.2808 6.90586 20.3265 8.12021 19.935 9.22693C20.8015 10.1619 21.2739 11.3951 21.2537 12.6696C21.2537 17.5982 18.2537 18.6827 15.396 19.0004C15.7021 19.3115 15.9382 19.6844 16.0884 20.0942C16.2386 20.5039 16.2995 20.941 16.267 21.3762C16.267 23.0913 16.2514 24.4752 16.2514 24.8958C16.2514 25.2389 16.4823 25.6381 17.1334 25.5128C20.0226 24.5477 22.4742 22.5863 24.0498 19.9794C25.6254 17.3725 26.2222 14.2901 25.7334 11.2835C25.2447 8.27691 23.7024 5.5422 21.3822 3.56854C19.062 1.59489 16.1154 0.511017 13.0694 0.510742V0.510925Z" fill="white"/>
</svg>
