<svg width="18" height="18" viewBox="0 0 18 18" fill="none" xmlns="http://www.w3.org/2000/svg">
<path d="M14.2402 0.519531H3.80661C2.93514 0.520299 2.09958 0.866795 1.48331 1.48297C0.867037 2.09915 0.520432 2.93468 0.519531 3.80615V14.2406C0.520405 15.1121 0.867003 15.9476 1.48328 16.5638C2.09955 17.18 2.93512 17.5266 3.80661 17.5273H14.2402C15.1117 17.5266 15.9473 17.18 16.5636 16.5638C17.1798 15.9476 17.5264 15.1121 17.5273 14.2406V3.80615C17.5264 2.93468 17.1798 2.09915 16.5635 1.48297C15.9473 0.866795 15.1117 0.520299 14.2402 0.519531ZM15.1835 2.47955L15.5595 2.47803V5.3609L12.6855 5.37012L12.6755 2.4873L15.1835 2.47955ZM6.59662 7.2774C7.01373 6.70034 7.62319 6.29122 8.31522 6.12366C9.00724 5.9561 9.73637 6.04112 10.3712 6.36346C11.0061 6.68581 11.505 7.22426 11.7781 7.88184C12.0512 8.53941 12.0805 9.27293 11.8607 9.9502C11.641 10.6275 11.1866 11.204 10.5795 11.5759C9.97233 11.9479 9.25232 12.0909 8.54913 11.9791C7.84594 11.8672 7.2058 11.508 6.74399 10.9661C6.28218 10.4241 6.02905 9.73503 6.03021 9.02301C6.03138 8.39625 6.22953 7.78572 6.59662 7.27771V7.2774ZM15.8701 14.2402C15.8698 14.6724 15.6979 15.0867 15.3923 15.3922C15.0866 15.6977 14.6723 15.8694 14.2401 15.8696H3.80661C3.37447 15.8694 2.96008 15.6977 2.65445 15.3922C2.34882 15.0867 2.17698 14.6724 2.17664 14.2402V7.27771H4.71573C4.42869 7.98371 4.31959 8.74943 4.39801 9.50751C4.47644 10.2656 4.73998 10.9928 5.16547 11.6251C5.59095 12.2574 6.16533 12.7754 6.83804 13.1335C7.51076 13.4917 8.26119 13.679 9.02332 13.679C9.78544 13.679 10.5359 13.4917 11.2086 13.1335C11.8813 12.7754 12.4557 12.2574 12.8812 11.6251C13.3066 10.9928 13.5702 10.2656 13.6486 9.50751C13.727 8.74943 13.618 7.98371 13.3309 7.27771H15.87L15.8701 14.2402Z" fill="white"/>
</svg>
