<svg width="18" height="17" viewBox="0 0 18 17" fill="none" xmlns="http://www.w3.org/2000/svg">
<path d="M4.27936 16.121H0.963868V5.51171H4.27936V16.121ZM2.53665 4.18451H2.51276C2.25994 4.20347 2.00592 4.16998 1.76666 4.08614C1.5274 4.0023 1.30806 3.86992 1.12238 3.6973C0.93669 3.52468 0.788672 3.31556 0.687623 3.08304C0.586573 2.85052 0.534667 2.59963 0.535157 2.34611C0.498509 1.94005 0.585581 1.53241 0.784943 1.17678C0.984306 0.821141 1.28661 0.534154 1.65213 0.353546C2.01765 0.172938 2.42929 0.107164 2.83289 0.164867C3.23649 0.222571 3.61316 0.401053 3.91342 0.676849C4.21369 0.952646 4.42348 1.31285 4.5152 1.7101C4.60692 2.10735 4.57627 2.52306 4.42731 2.90258C4.27835 3.2821 4.01805 3.60765 3.6806 3.83645C3.34315 4.06525 2.94435 4.18659 2.53665 4.18451ZM17.5429 16.121H13.7838V10.631C13.7838 9.194 13.1964 8.2135 11.9029 8.2135C11.5052 8.21499 11.1181 8.34125 10.7961 8.57449C10.4741 8.80773 10.2333 9.13618 10.1079 9.51351C10.0292 9.79539 10.0017 10.0891 10.0269 10.3807V16.1214H6.30277C6.30277 16.1214 6.35117 6.39631 6.30277 5.51211H10.0269V7.1771C10.3443 6.59028 10.8274 6.10984 11.416 5.79562C12.0046 5.4814 12.6726 5.34729 13.3369 5.41001C15.6924 5.41001 17.5434 6.93641 17.5434 10.222L17.5429 16.121Z" fill="white"/>
</svg>
