<svg width="24" height="20" viewBox="0 0 24 20" fill="none" xmlns="http://www.w3.org/2000/svg">
<path d="M10.1773 11.5259C10.1766 11.8322 10.0851 12.1313 9.91443 12.3856C9.74377 12.6398 9.50159 12.8378 9.21846 12.9545C8.93534 13.0712 8.62397 13.1013 8.32372 13.0411C8.02346 12.9809 7.7478 12.8331 7.53153 12.6163C7.31525 12.3995 7.16807 12.1235 7.1086 11.8231C7.04913 11.5227 7.08002 11.2114 7.19737 10.9286C7.31473 10.6457 7.51328 10.404 7.76795 10.234C8.02261 10.0639 8.32198 9.97315 8.62821 9.97314C8.83191 9.97326 9.03359 10.0136 9.22173 10.0917C9.40986 10.1698 9.58075 10.2842 9.72463 10.4284C9.8685 10.5727 9.98252 10.7438 10.0602 10.9321C10.1379 11.1204 10.1777 11.3222 10.1773 11.5259V11.5259Z" fill="white"/>
<path d="M23.5621 10.2726C23.5755 9.3664 23.2293 8.49181 22.5992 7.84037C21.9691 7.18893 21.1066 6.81371 20.2004 6.79688C19.5718 6.79838 18.9569 6.98138 18.4297 7.32389C16.652 6.3325 14.6594 5.78951 12.6245 5.74198L13.8928 2.10578L16.5141 2.73679C16.5068 2.82159 16.4886 2.90359 16.4886 2.99299C16.482 3.63305 16.7073 4.25387 17.123 4.74064C17.5387 5.22741 18.1166 5.54721 18.7498 5.64088C19.383 5.73455 20.0287 5.59573 20.5675 5.25016C21.1063 4.90459 21.5017 4.37563 21.6807 3.76105C21.8596 3.14648 21.81 2.48789 21.5409 1.90708C21.2719 1.32627 20.8016 0.86254 20.2171 0.601631C19.6326 0.340721 18.9734 0.300277 18.3614 0.4878C17.7494 0.675323 17.2259 1.07811 16.8879 1.62168L13.1379 0.724494L11.3891 5.74931C9.36603 5.82895 7.39337 6.40373 5.64414 7.42329C5.67604 7.40229 5.70414 7.37678 5.73344 7.35578C5.19483 6.99204 4.55986 6.79743 3.90993 6.79688C3.0038 6.81199 2.14071 7.18614 1.51023 7.83713C0.879748 8.48813 0.533434 9.36275 0.547339 10.2689C0.544932 10.8713 0.698929 11.464 0.994269 11.989C1.28961 12.514 1.71617 12.9533 2.23223 13.2641C2.64533 16.8473 6.91514 19.6756 12.1158 19.6756C17.3512 19.6756 21.6429 16.8081 22.0058 13.193C22.4864 12.8728 22.8801 12.4385 23.1517 11.929C23.4233 11.4194 23.5644 10.8504 23.5622 10.273L23.5621 10.2726ZM19.1135 1.53959C19.4013 1.53983 19.6825 1.62538 19.9216 1.78544C20.1607 1.9455 20.347 2.17289 20.4569 2.43882C20.5668 2.70475 20.5953 2.99729 20.5389 3.27946C20.4825 3.56162 20.3438 3.82071 20.1401 4.02399C19.9365 4.22728 19.6771 4.36561 19.3949 4.42149C19.1126 4.47736 18.8201 4.44829 18.5544 4.33793C18.2886 4.22757 18.0616 4.04089 17.902 3.80149C17.7423 3.56209 17.6573 3.28073 17.6575 2.99299C17.6579 2.60719 17.8115 2.23734 18.0846 1.96479C18.3576 1.69224 18.7277 1.5393 19.1135 1.53959V1.53959ZM3.90984 7.96488C4.1659 7.96703 4.41935 8.0165 4.65743 8.11079C3.4436 9.01775 2.59952 10.3338 2.28144 11.8153C1.91311 11.3857 1.71088 10.8384 1.71143 10.2726C1.69765 9.67526 1.92135 9.09687 2.33346 8.66425C2.74556 8.23164 3.31244 7.98011 3.90974 7.96488H3.90984ZM12.1157 18.5068C7.28573 18.5068 3.35734 15.9037 3.35734 12.7015C3.35734 9.49668 7.28603 6.89259 12.1157 6.89259C16.9454 6.89259 20.8732 9.49668 20.8732 12.7015C20.8732 15.9037 16.9444 18.5068 12.1157 18.5068ZM21.9236 11.6868C21.5731 10.2428 20.7274 8.96742 19.5336 8.08259C19.7479 8.00736 19.9731 7.96766 20.2001 7.965C20.7967 7.98122 21.3625 8.23315 21.7737 8.66569C22.1848 9.09822 22.4078 9.67607 22.3938 10.2727C22.3944 10.7825 22.2295 11.2788 21.9238 11.6868H21.9236Z" fill="white"/>
<path d="M16.8487 11.5259C16.8483 11.8325 16.7571 12.1321 16.5865 12.3869C16.416 12.6416 16.1737 12.8401 15.8904 12.9573C15.6071 13.0744 15.2954 13.105 14.9947 13.045C14.6941 12.9851 14.4179 12.8375 14.2011 12.6207C13.9843 12.4039 13.8367 12.1277 13.7768 11.827C13.7169 11.5264 13.7474 11.2147 13.8646 10.9314C13.9818 10.6481 14.1803 10.4058 14.435 10.2353C14.6898 10.0647 14.9894 9.9735 15.296 9.97315C15.5 9.97291 15.702 10.0129 15.8905 10.0909C16.079 10.1688 16.2502 10.2832 16.3945 10.4274C16.5387 10.5717 16.6531 10.743 16.731 10.9315C16.8089 11.12 16.8489 11.322 16.8487 11.5259V11.5259Z" fill="white"/>
<path d="M15.0461 14.9735C14.1689 15.6157 13.1115 15.9646 12.0244 15.9705C10.9373 15.9764 9.87607 15.6389 8.99201 15.0063C8.93253 14.9578 8.86404 14.9217 8.7905 14.8999C8.71695 14.8781 8.63982 14.8711 8.56355 14.8793C8.48729 14.8875 8.41342 14.9108 8.34621 14.9478C8.279 14.9848 8.21978 15.0347 8.172 15.0947C8.07629 15.2157 8.03203 15.3696 8.04875 15.523C8.06548 15.6764 8.14186 15.8171 8.2614 15.9147C9.35234 16.6932 10.6576 17.1149 11.9978 17.1219C13.3183 17.1067 14.6042 16.6975 15.6905 15.9466C15.7544 15.9042 15.8093 15.8498 15.8521 15.7862C15.8949 15.7227 15.9248 15.6513 15.94 15.5762C15.9553 15.5011 15.9556 15.4237 15.9409 15.3485C15.9262 15.2733 15.8969 15.2017 15.8546 15.1378C15.8122 15.074 15.7577 15.0191 15.6942 14.9762C15.6306 14.9334 15.5592 14.9036 15.4841 14.8883C15.409 14.8731 15.3317 14.8728 15.2565 14.8875C15.1813 14.9021 15.1097 14.9314 15.0458 14.9738L15.0461 14.9735Z" fill="white"/>
</svg>
