<svg width="18" height="15" viewBox="0 0 18 15" fill="none" xmlns="http://www.w3.org/2000/svg">
<path d="M17.541 2.55227C16.9031 2.83475 16.2265 3.02014 15.5337 3.10227C16.2638 2.66607 16.8101 1.97887 17.0703 1.16917C16.3841 1.57633 15.6333 1.86288 14.8503 2.01637C14.3231 1.45688 13.6263 1.08659 12.8676 0.962718C12.1089 0.838847 11.3305 0.968295 10.6527 1.33105C9.97497 1.69381 9.43553 2.26969 9.11778 2.96969C8.80004 3.6697 8.72166 4.45487 8.89479 5.20387C7.50492 5.13438 6.14523 4.7733 4.90401 4.14407C3.66278 3.51485 2.56781 2.63155 1.6902 1.55157C1.2433 2.32138 1.10642 3.23252 1.30742 4.09965C1.50842 4.96678 2.03219 5.72478 2.7722 6.21947C2.21703 6.20184 1.67404 6.05221 1.1882 5.78297V5.82597C1.18809 6.63322 1.46737 7.41563 1.97862 8.04035C2.48987 8.66507 3.20157 9.0936 3.99289 9.25317C3.69281 9.33605 3.38281 9.37746 3.0715 9.37627C2.85096 9.37656 2.63089 9.3558 2.41429 9.31427C2.63726 10.0087 3.07191 10.6161 3.65733 11.0512C4.24276 11.4862 4.94962 11.7273 5.67889 11.7405C4.21183 12.8855 2.35241 13.406 0.504089 13.1888C2.00653 14.151 3.74025 14.6912 5.52336 14.7527C7.30647 14.8141 9.07326 14.3945 10.6384 13.538C12.2035 12.6814 13.5092 11.4194 14.4186 9.88441C15.328 8.3494 15.8075 6.59794 15.8069 4.81377C15.8069 4.66187 15.8039 4.51057 15.7976 4.36157C16.482 3.86711 17.0725 3.25431 17.5412 2.55207" fill="white"/>
</svg>
