<svg width="18" height="12" viewBox="0 0 18 12" fill="none" xmlns="http://www.w3.org/2000/svg">
<path d="M12.3571 6.0163L6.78875 9.2868V2.7457L12.3571 6.0163ZM17.5592 9.0485V2.9675C17.5675 2.58028 17.4973 2.1954 17.3528 1.83603C17.2084 1.47666 16.9928 1.15022 16.7189 0.876373C16.445 0.602525 16.1185 0.386925 15.7592 0.242553C15.3998 0.0981815 15.0149 0.0280239 14.6277 0.0363001H3.48114C3.09402 0.0281153 2.70926 0.09835 2.35 0.242774C1.99074 0.387199 1.66439 0.602826 1.39065 0.876678C1.11691 1.15053 0.901414 1.47694 0.757136 1.83626C0.612859 2.19558 0.542799 2.58038 0.551143 2.9675V9.0485C0.542868 9.43557 0.612981 9.82032 0.757289 10.1796C0.901597 10.5388 1.1171 10.8652 1.39083 11.139C1.66457 11.4128 1.99086 11.6284 2.35009 11.7728C2.70932 11.9172 3.09406 11.9874 3.48114 11.9792H14.6277C15.0148 11.9875 15.3997 11.9173 15.759 11.773C16.1184 11.6286 16.4448 11.4131 16.7187 11.1393C16.9926 10.8655 17.2082 10.5391 17.3527 10.1798C17.4971 9.8205 17.5674 9.43568 17.5592 9.0485Z" fill="white"/>
</svg>
