<svg xmlns="http://www.w3.org/2000/svg" xmlns:xlink="http://www.w3.org/1999/xlink" viewBox="0 0 718.55 130.11"><defs><style>.cls-1{fill:#fff;}.cls-2{fill:url(#radial-gradient);}</style><radialGradient id="radial-gradient" cx="218.05" cy="27.12" r="109.45" gradientUnits="userSpaceOnUse"><stop offset="0.1" stop-color="#26db8d"/><stop offset="0.26" stop-color="#23d29a"/><stop offset="0.56" stop-color="#1abbbb"/><stop offset="0.89" stop-color="#0e9de5"/></radialGradient></defs><title>white</title><g id="Layer_2" data-name="Layer 2"><g id="Layer_1-2" data-name="Layer 1"><polygon class="cls-1" points="49.33 57.48 16.05 57.48 16.05 21.84 0 21.84 0 108.27 16.05 108.27 16.05 72.29 49.33 72.29 49.33 108.27 65.38 108.27 65.38 21.84 49.33 21.84 49.33 57.48"/><path class="cls-1" d="M313.84,71.24C318.44,66.16,321,59,321,51c0-8.17-2.47-15.2-7.12-20.33-3.56-4-10.24-8.83-21.93-8.83H265.69v86.43h16.05V80.05H289l21,28.22h18.47l-23.1-31A24.81,24.81,0,0,0,313.84,71.24ZM306.17,51c0,4.51-1.12,8-3.34,10.36-2.34,2.65-6,4-10.9,4H281.74V36.65h10.19c5,0,8.63,1.31,10.93,3.91C305.05,42.91,306.17,46.42,306.17,51Z"/><rect class="cls-1" x="363.86" y="21.84" width="16.05" height="86.43"/><polygon class="cls-1" points="426.61 21.84 426.61 37.88 458.94 37.88 419.01 108.27 487.56 108.27 487.56 92.22 447.63 92.22 487.56 21.84 426.61 21.84"/><polygon class="cls-1" points="525.68 108.27 578.72 108.27 578.72 93.46 541.73 93.46 541.73 70.6 572.2 70.6 572.2 55.79 541.73 55.79 541.73 36.54 578.72 36.54 578.72 21.84 525.68 21.84 525.68 108.27"/><polygon class="cls-1" points="669.61 75.99 628.98 21.84 617.22 21.84 617.22 108.27 633.26 108.27 633.26 54 674.1 108.27 685.77 108.27 685.77 21.84 669.61 21.84 669.61 75.99"/><path class="cls-2" d="M218,27.19v0L207.4,43.68a47.34,47.34,0,0,1-63.59,63.63L127.33,118A65,65,0,0,0,218,27.19Z"/><path class="cls-2" d="M165.16,97.63A32.67,32.67,0,0,0,197.28,70.9a74.73,74.73,0,0,0-59.23,12.31A32.64,32.64,0,0,0,165.16,97.63Z"/><path class="cls-1" d="M181.26,63.29a78,78,0,0,1,16.57,1.78v0a32.68,32.68,0,0,0-65.35,0,31.44,31.44,0,0,0,.31,4.37h0a71.63,71.63,0,0,0-12.26,11.36,47.33,47.33,0,0,1,65.92-58l16.49-10.66a65,65,0,0,0-90.12,91.55,78.77,78.77,0,0,1,11.13-15.34s6.41-6.7,11.33-10.06A77.81,77.81,0,0,1,181.26,63.29Z"/><path class="cls-1" d="M699.27,33V23.2h-3.5V21.41h9V23.2H701.3V33Z"/><path class="cls-1" d="M716.52,33V24.39L713,33h-.86l-3.54-8.59V33h-2V21.41h2.86L712.53,29l3.16-7.61h2.86V33Z"/></g></g></svg>