<svg width="262" height="22" viewBox="0 0 262 22" fill="none" xmlns="http://www.w3.org/2000/svg">
<path d="M16.3428 9.71917H10.714V3.69287H8V18.3074H10.714V12.224H16.3428V18.3074H19.0574V3.69287H16.3428V9.71917Z" fill="white"/>
<path d="M61.0819 12.0453C61.8605 11.1875 62.2889 9.97233 62.2889 8.62362C62.2889 7.2431 61.8714 6.05323 61.0843 5.18557C60.4835 4.50453 59.3529 3.69287 57.3757 3.69287H52.9381V18.3074H55.6527V13.5355H56.8871L60.4433 18.3074H63.5685L59.6608 13.0724C60.3341 12.7746 60.7989 12.36 61.0819 12.0453ZM59.7839 8.62362C59.7839 9.38561 59.5957 9.97283 59.2199 10.3754C58.8241 10.8232 58.2034 11.0501 57.3757 11.0501H55.6527V6.19728H57.3757C58.2144 6.19728 58.835 6.41821 59.2248 6.858C59.5957 7.25565 59.7839 7.84933 59.7839 8.62368V8.62362Z" fill="white"/>
<path d="M72.2567 3.69287H69.5421V18.3074H72.2567V3.69287Z" fill="white"/>
<path d="M80.1554 3.69287V6.40623H85.6242L78.8699 18.3074H90.465V15.5936H83.7111L90.465 3.69287H80.1554Z" fill="white"/>
<path d="M96.9117 18.3074H105.883V15.8031H99.6263V11.9386H104.779V9.43428H99.6263V6.17834H105.883V3.69287H96.9117V18.3074Z" fill="white"/>
<path d="M121.255 12.849L114.384 3.69287H112.394V18.3074H115.108V9.13145L122.015 18.3074H123.989V3.69287H121.255V12.849Z" fill="white"/>
<path d="M44.8792 4.59814L44.8785 4.59996L43.0788 7.38632C43.6294 8.47215 43.9416 9.69915 43.9416 10.9998C43.9416 15.4209 40.3565 19.005 35.9342 19.005C34.6349 19.005 33.409 18.6937 32.324 18.1446L29.536 19.946C31.3392 21.2372 33.547 21.9998 35.9342 21.9998C42.011 21.9998 46.9372 17.0749 46.9372 10.9998C46.9372 8.61093 46.173 6.40176 44.8792 4.59814Z" fill="url(#paint0_radial_7_371)"/>
<path d="M35.9342 16.5089C38.6431 16.5089 40.8951 14.5599 41.3678 11.9885C40.5105 11.8052 39.6218 11.7065 38.7097 11.7065C35.9635 11.7065 33.4237 12.5841 31.3497 14.07C32.3426 15.5412 34.0254 16.5089 35.9342 16.5089Z" fill="url(#paint1_radial_7_371)"/>
<path d="M38.6581 10.7017C39.6201 10.7017 40.557 10.8069 41.4606 11.0019C41.4606 11.0013 41.4606 11.0006 41.4606 10.9999C41.4606 7.94857 38.9863 5.47501 35.9342 5.47501C32.882 5.47501 30.4077 7.94863 30.4077 10.9999C30.4077 11.2507 30.4264 11.4967 30.4589 11.7385C30.4584 11.7389 30.4579 11.7392 30.4573 11.7397C29.0656 12.7963 28.4057 13.6336 28.3847 13.6604C28.0901 12.8279 27.9268 11.9335 27.9268 10.9999C27.9268 6.57878 31.5118 2.99474 35.9342 2.99474C37.2292 2.99474 38.4513 3.30397 39.5337 3.84968L42.3234 2.04731C40.5218 0.75999 38.3175 0 35.9342 0C29.8574 0 24.9312 4.92485 24.9312 11C24.9312 13.4452 25.7305 15.7029 27.0808 17.5287C27.6024 16.5873 28.2355 15.7168 28.9623 14.934C28.9623 14.934 30.0476 13.8018 30.8791 13.2326C33.0626 11.6423 35.7499 10.7017 38.6581 10.7017H38.6581Z" fill="white"/>
<path d="M131.388 3.69287H130.5V18.3074H131.388V3.69287Z" fill="url(#paint2_linear_7_371)"/>
<path d="M149.543 18.2949L148.47 15.493H141.77L140.697 18.2949H137.785L143.522 3.69434H146.719L152.455 18.2949H149.543ZM145.12 6.27732L142.493 13.2385H147.748L145.12 6.27732Z" fill="white"/>
<path d="M154.687 11.0058C154.687 6.51809 158.037 3.45361 162.35 3.45361C165.307 3.45361 167.124 4.98588 168.219 6.73708L166.029 7.85364C165.328 6.64941 163.927 5.72994 162.35 5.72994C159.46 5.72994 157.315 7.94087 157.315 11.0058C157.315 14.0707 159.46 16.2812 162.35 16.2812C163.927 16.2812 165.328 15.3835 166.029 14.1579L168.219 15.2741C167.102 17.0253 165.307 18.5575 162.35 18.5575C158.037 18.5575 154.687 15.493 154.687 11.0058Z" fill="white"/>
<path d="M182.45 18.2949L181.377 15.493H174.676L173.604 18.2949H170.692L176.429 3.69434H179.626L185.362 18.2949H182.45ZM178.027 6.27732L175.4 13.2385H180.654L178.027 6.27732Z" fill="white"/>
<path d="M189.017 18.2949V3.69434H194.447C199.001 3.69434 202.088 6.71523 202.088 11.0058C202.088 15.2963 199.001 18.2949 194.447 18.2949H189.017ZM199.461 11.0058C199.461 8.18159 197.71 5.94891 194.447 5.94891H191.578V16.0404H194.447C197.622 16.0404 199.461 13.7636 199.461 11.0057V11.0058Z" fill="white"/>
<path d="M206.619 18.2949V3.69434H216.626V5.94884H209.182V9.73606H216.473V11.9906H209.182V16.0404H216.626V18.2949H206.619V18.2949Z" fill="white"/>
<path d="M233.923 18.2949V7.45929L229.434 18.2949H228.339L223.873 7.45929V18.2949H221.311V3.69434H224.923L228.886 13.3039L232.871 3.69434H236.485V18.2949H233.923H233.923Z" fill="white"/>
<path d="M245.788 18.2949V12.2314L240.117 3.69434H243.052L247.081 9.95505L251.066 3.69434H254L248.35 12.2314V18.2949H245.788H245.788Z" fill="white"/>
<defs>
<radialGradient id="paint0_radial_7_371" cx="0" cy="0" r="1" gradientUnits="userSpaceOnUse" gradientTransform="translate(44.8808 4.58504) scale(18.5117 18.5066)">
<stop offset="0.0986" stop-color="#26DB8D"/>
<stop offset="0.2628" stop-color="#22D299"/>
<stop offset="0.5637" stop-color="#19BABA"/>
<stop offset="0.886" stop-color="#0E9DE5"/>
</radialGradient>
<radialGradient id="paint1_radial_7_371" cx="0" cy="0" r="1" gradientUnits="userSpaceOnUse" gradientTransform="translate(44.8808 4.58538) scale(18.5117 18.5066)">
<stop offset="0.0986" stop-color="#26DB8D"/>
<stop offset="0.2628" stop-color="#22D299"/>
<stop offset="0.5637" stop-color="#19BABA"/>
<stop offset="0.886" stop-color="#0E9DE5"/>
</radialGradient>
<linearGradient id="paint2_linear_7_371" x1="130.944" y1="3.69287" x2="130.944" y2="18.3074" gradientUnits="userSpaceOnUse">
<stop offset="0.114" stop-color="#0E9DE5"/>
<stop offset="0.4363" stop-color="#19BABA"/>
<stop offset="0.7372" stop-color="#22D299"/>
<stop offset="0.9014" stop-color="#26DB8D"/>
</linearGradient>
</defs>
</svg>
