<svg width="160" height="160" viewBox="0 0 160 160" fill="none" xmlns="http://www.w3.org/2000/svg">
<path d="M136.253 122.101L153.308 122.091C156.761 122.09 159.556 120.487 159.554 118.51L159.537 106.056C159.533 104.079 156.732 102.478 153.279 102.48L139.932 102.486C137.722 102.488 135.821 101.671 135.043 100.486C134.574 99.7717 134.062 99.0682 133.511 98.3744C132.592 97.2232 132.922 95.8728 134.486 94.9769L143.923 89.5698C146.364 88.1719 146.362 85.9054 143.92 84.5074L128.533 75.706C126.091 74.3082 122.132 74.3087 119.693 75.7082L110.184 81.1558C108.687 82.0138 106.437 82.2569 104.491 81.7804C103.133 81.4484 101.668 81.1121 100.405 80.8302C98.4239 80.3878 97.1352 79.2975 97.1352 78.0803V70.3612C97.1352 68.3846 94.3383 66.7815 90.8837 66.7815H69.1333C65.6803 66.7815 62.8812 68.3846 62.8812 70.3612V78.0056C62.8812 79.2682 61.4549 80.3538 59.3875 80.7998C58.0784 81.0817 56.7919 81.3908 55.522 81.7239C53.5135 82.2531 51.1563 82.0676 49.5875 81.1739L40.1159 75.7828C37.6677 74.3881 33.7101 74.395 31.2763 75.7961L15.9388 84.629C13.5044 86.0295 13.5157 88.2971 15.965 89.6892L25.5062 95.1214C27.0086 95.9773 27.4381 97.2638 26.6117 98.3803C26.0354 99.1573 25.451 99.9962 24.9631 100.721C24.1945 101.855 22.2915 102.596 20.1689 102.597L6.68078 102.617C3.22931 102.621 0.436677 104.228 0.445823 106.205L0.499385 118.657C0.508472 120.636 3.31241 122.234 6.76596 122.23L20.1175 122.21C22.3258 122.207 24.2277 123.023 25.0108 124.206C25.4821 124.919 25.9957 125.621 26.5485 126.315C27.4692 127.466 27.1436 128.815 25.5828 129.712L16.1588 135.13C13.7239 136.53 13.7304 138.796 16.177 140.191L31.5896 148.979C34.0357 150.374 37.9938 150.37 40.4297 148.97L49.9249 143.511C51.4198 142.651 53.6677 142.406 55.6183 142.882C56.9723 143.212 58.4384 143.547 59.7029 143.826C61.6835 144.268 62.9759 145.357 62.9797 146.574L63.0006 154.294C63.006 156.272 65.8098 157.871 69.2629 157.867L91.0143 157.848C94.4668 157.845 97.261 156.239 97.2535 154.262L97.2342 146.619C97.2299 145.355 98.6573 144.267 100.723 143.819C101.971 143.55 103.199 143.256 104.409 142.94C106.42 142.414 108.777 142.602 110.342 143.496L119.795 148.895C122.242 150.291 126.2 150.289 128.637 148.889L143.999 140.072C146.436 138.673 146.432 136.407 143.988 135.011L134.464 129.571C132.965 128.714 132.537 127.426 133.368 126.311C134.755 124.448 136.183 122.231 136.252 122.101L136.253 122.101ZM49.6887 109.142C53.3067 98.1329 73.2259 91.9141 91.1343 95.8652C104.74 98.8662 113.024 107.293 110.329 115.496C106.712 126.507 86.7921 132.724 68.8826 128.774C55.2783 125.773 46.9919 117.346 49.6887 109.142H49.6887Z" fill="#041742"/>
<path d="M69.2503 158C65.7347 158 62.8725 156.339 62.8673 154.294L62.8462 146.574C62.8427 145.431 61.5677 144.378 59.674 143.956C58.6348 143.726 57.0814 143.375 55.587 143.011C53.6564 142.54 51.4596 142.782 49.992 143.626L40.4962 149.085C38.028 150.503 34.0028 150.507 31.523 149.095L16.1106 140.307C14.8829 139.606 14.2058 138.666 14.204 137.66C14.2022 136.655 14.8724 135.716 16.0919 135.015L25.5158 129.597C26.2992 129.147 26.7768 128.576 26.8965 127.947C26.9957 127.428 26.8393 126.892 26.4441 126.398C25.8813 125.692 25.3618 124.979 24.8994 124.279C24.1201 123.102 22.2479 122.343 20.127 122.343H20.1177L6.76602 122.363H6.7549C3.23995 122.363 0.375344 120.702 0.365421 118.658L0.312277 106.206C0.309348 105.543 0.60651 104.893 1.1722 104.327C2.30591 103.193 4.41629 102.487 6.68072 102.484L20.169 102.464C22.2344 102.463 24.1165 101.732 24.852 100.647C25.2443 100.064 25.8492 99.1841 26.5042 98.3011C26.8369 97.8521 26.9589 97.3625 26.8579 96.8856C26.7271 96.2687 26.2234 95.6831 25.4394 95.237L15.8986 89.8048C14.6686 89.1054 13.9897 88.1655 13.9868 87.1577C13.9845 86.154 14.6534 85.2147 15.8718 84.5136L31.2088 75.6809C33.677 74.2613 37.7016 74.2543 40.1821 75.667L49.6539 81.0581C51.1653 81.9201 53.4549 82.1298 55.4876 81.5954C56.7824 81.2556 58.0848 80.9442 59.3592 80.6695C61.4177 80.2257 62.7475 79.1801 62.7475 78.0056V70.3614C62.7475 68.3138 65.6121 66.6484 69.1335 66.6484H90.8834C94.4041 66.6484 97.2687 68.3138 97.2687 70.3614V78.08C97.2687 79.2423 98.511 80.271 100.434 80.7008C101.476 80.9332 103.032 81.287 104.523 81.6512C106.449 82.124 108.646 81.8835 110.118 81.0406L119.626 75.5933C122.099 74.1742 126.124 74.1736 128.599 75.5909L143.986 84.3923C145.211 85.0934 145.886 86.0332 145.886 87.0399C145.886 88.0448 145.212 88.9846 143.989 89.6846L134.552 95.0919C133.766 95.5427 133.287 96.1137 133.166 96.7445C133.066 97.2637 133.222 97.7988 133.615 98.2919C134.173 98.993 134.691 99.7063 135.155 100.413C135.929 101.592 137.8 102.353 139.923 102.353H139.932L153.279 102.347H153.285C156.803 102.347 159.667 104.01 159.671 106.056L159.688 118.51C159.688 119.516 159.016 120.456 157.793 121.157C156.594 121.844 155.001 122.224 153.308 122.224L136.328 122.234C136.068 122.656 134.741 124.69 133.476 126.39C133.141 126.839 133.018 127.328 133.117 127.805C133.246 128.422 133.749 129.008 134.53 129.456L144.055 134.895C145.281 135.596 145.957 136.536 145.958 137.543C145.959 138.547 145.287 139.487 144.066 140.187L128.703 149.004C126.234 150.423 122.209 150.424 119.729 149.01L110.275 143.611C108.766 142.749 106.477 142.537 104.443 143.068C103.22 143.388 101.978 143.684 100.751 143.949C98.6919 144.395 97.3638 145.443 97.3679 146.618L97.3871 154.261C97.3895 154.924 97.0918 155.573 96.5255 156.139C95.3918 157.273 93.2797 157.978 91.014 157.981L69.263 158H69.2502L69.2503 158ZM53.5729 142.508C54.2711 142.508 54.9763 142.588 55.65 142.753C57.1427 143.116 58.6938 143.467 59.7323 143.697C61.782 144.153 63.1089 145.282 63.1136 146.573L63.1346 154.293C63.1399 156.192 65.8819 157.734 69.2503 157.734H69.2631L91.0142 157.715C93.2109 157.712 95.2506 157.037 96.3365 155.951C96.8513 155.437 97.1223 154.852 97.1199 154.262L97.1006 146.619C97.0965 145.313 98.5069 144.163 100.694 143.689C101.918 143.425 103.156 143.13 104.376 142.811C106.476 142.261 108.843 142.486 110.408 143.381L119.862 148.779C122.267 150.152 126.173 150.15 128.57 148.773L143.933 139.957C145.067 139.306 145.691 138.449 145.69 137.543C145.69 136.636 145.062 135.778 143.921 135.126L134.397 129.686C133.548 129.2 133.001 128.552 132.856 127.859C132.74 127.306 132.88 126.743 133.261 126.232C134.673 124.336 136.077 122.146 136.134 122.038C136.158 121.995 136.203 121.967 136.252 121.967L153.308 121.958C154.955 121.958 156.5 121.591 157.66 120.926C158.796 120.275 159.421 119.416 159.42 118.51L159.403 106.056C159.399 104.157 156.655 102.613 153.285 102.613H153.279L139.932 102.619H139.923C137.712 102.619 135.754 101.811 134.931 100.558C134.471 99.8584 133.958 99.1515 133.406 98.4567C132.963 97.9014 132.789 97.2921 132.903 96.6944C133.039 95.9851 133.563 95.3514 134.419 94.8617L143.856 89.4544C144.993 88.8033 145.619 87.9459 145.618 87.0397C145.618 86.1324 144.991 85.2738 143.853 84.6221L128.466 75.8208C126.064 74.4476 122.159 74.4476 119.759 75.8231L110.251 81.2705C108.723 82.1465 106.449 82.3973 104.458 81.9088C102.97 81.5452 101.416 81.192 100.375 80.9597C98.3258 80.502 97.0013 79.3716 97.0013 78.0797V70.3611C97.0013 68.4605 94.2569 66.9143 90.8832 66.9143H69.1334C65.7597 66.9143 63.0147 68.4605 63.0147 70.3611V78.0054C63.0147 79.31 61.602 80.4578 59.4151 80.9295C58.1454 81.2031 56.8465 81.5138 55.5558 81.8519C53.4588 82.4037 51.0904 82.1824 49.5206 81.289L40.0488 75.898C37.6431 74.5271 33.737 74.5329 31.3429 75.9108L16.0059 84.7435C14.8734 85.3952 14.2516 86.252 14.2539 87.157C14.2563 88.0649 14.8879 88.9234 16.0315 89.5734L25.5723 95.0057C26.4229 95.4901 26.9722 96.1384 27.1193 96.8302C27.2366 97.3838 27.0982 97.9466 26.7188 98.459C26.0674 99.3378 25.4648 100.214 25.0737 100.795C24.2786 101.969 22.3533 102.728 20.1688 102.73L6.68054 102.75C4.48491 102.752 2.44699 103.429 1.3617 104.515C0.847359 105.03 0.576501 105.614 0.57943 106.204L0.632573 118.656C0.641301 120.555 3.38683 122.097 6.75466 122.097H6.76578L20.1174 122.077H20.1268C22.3352 122.077 24.295 122.883 25.1221 124.132C25.5804 124.826 26.0953 125.533 26.6528 126.232C27.0976 126.789 27.2727 127.398 27.1589 127.996C27.0241 128.704 26.5022 129.337 25.6493 129.827L16.2259 135.245C15.0922 135.897 14.4693 136.754 14.4711 137.659C14.4723 138.566 15.1021 139.425 16.2434 140.075L31.6557 148.863C34.0609 150.235 37.967 150.231 40.3628 148.855L49.858 143.396C50.8673 142.815 52.2054 142.508 53.5726 142.508L53.5729 142.508ZM80.0561 130.108C76.3532 130.108 72.5702 129.724 68.8534 128.904C60.3401 127.026 53.5157 122.865 50.598 117.774C48.9821 114.954 48.6237 111.955 49.5618 109.101C53.1777 98.0996 73.0052 91.728 91.1637 95.7354C99.6763 97.6128 106.501 101.774 109.419 106.865C111.036 109.684 111.394 112.683 110.456 115.538C107.582 124.287 94.4469 130.108 80.0561 130.108H80.0561ZM79.9352 94.7933C65.6642 94.7933 52.657 100.537 49.8163 109.183C48.9021 111.964 49.2524 114.889 50.8297 117.642C53.7107 122.669 60.4703 126.782 68.9117 128.645C86.9488 132.622 106.628 126.336 110.202 115.455C111.116 112.674 110.765 109.749 109.187 106.997C106.306 101.969 99.5461 97.8568 91.1053 95.9945C87.4006 95.1772 83.6253 94.7933 79.9352 94.7933Z" fill="white"/>
<path d="M110.329 97.8528C113.024 89.6499 104.74 81.2225 91.1344 78.2216C73.2259 74.2705 53.3067 80.4893 49.6887 91.4981C48.2995 95.7248 49.8309 100.009 53.497 103.581C59.2685 98.2082 69.0195 94.6758 80.0824 94.6758C91.1283 94.6758 100.867 98.1971 106.642 103.556C108.372 101.851 109.644 99.9383 110.329 97.8528V97.8528Z" fill="url(#paint0_linear_527_920)"/>
<path d="M53.497 103.675C53.4731 103.675 53.4491 103.666 53.431 103.648C49.6043 99.9189 48.2436 95.5938 49.5991 91.469C53.2092 80.4859 73.0174 74.1312 91.1548 78.1299C99.657 80.0055 106.472 84.1587 109.384 89.2402C110.995 92.0504 111.353 95.0384 110.418 97.8818C109.747 99.927 108.498 101.858 106.708 103.623C106.671 103.658 106.614 103.658 106.577 103.624C100.602 98.0798 90.6971 94.7695 80.0822 94.7695C69.4481 94.7695 59.5338 98.0892 53.5611 103.65C53.543 103.667 53.5203 103.675 53.4969 103.675H53.497ZM79.9387 77.111C65.6501 77.111 52.6248 82.8663 49.7777 91.527C48.4537 95.5577 49.7748 99.7893 53.4987 103.452C59.5123 97.8963 69.4406 94.5825 80.0823 94.5825C90.7047 94.5825 100.623 97.8865 106.639 103.426C108.374 101.7 109.585 99.8161 110.24 97.8237C111.157 95.032 110.805 92.0957 109.221 89.3331C106.334 84.297 99.5648 80.1769 91.114 78.3134C87.4076 77.4956 83.6305 77.111 79.9387 77.111V77.111Z" fill="white"/>
<path d="M0.63287 101.014H0.365479V118.657H0.63287V101.014Z" fill="white"/>
<path d="M14.301 69.9425H14.0336V86.944H14.301V69.9425Z" fill="white"/>
<path d="M145.882 69.292H145.615V86.5815H145.882V69.292Z" fill="white"/>
<path d="M159.688 100.866H159.42V118.657H159.688V100.866Z" fill="white"/>
<path d="M145.952 119.763H145.685V138.214H145.952V119.763Z" fill="white"/>
<path d="M123.321 132.245H123.054V149.877H123.321V132.245Z" fill="white"/>
<path d="M97.3873 136.618H97.1199V154.262H97.3873V136.618Z" fill="white"/>
<path d="M63.1346 136.65H62.8672V154.293H63.1346V136.65Z" fill="white"/>
<path d="M36.4081 132.371H36.1407V150.008H36.4081V132.371Z" fill="white"/>
<path d="M14.4877 119.763H14.2203V138.214H14.4877V119.763Z" fill="white"/>
<path d="M97.3873 61.0633H97.1199V78.0799H97.3873V61.0633Z" fill="white"/>
<path d="M63.015 60.3617H62.7476V78.0056H63.015V60.3617Z" fill="white"/>
<path d="M35.8056 57.0977H35.5382V74.7318H35.8056V57.0977Z" fill="white"/>
<path d="M124.629 57.0246H124.362V74.7318H124.629V57.0246Z" fill="white"/>
<path d="M133.14 79.4415H132.872V97.4635H133.14V79.4415Z" fill="white"/>
<path d="M52.5945 125.069H52.3271V142.696H52.5945V125.069Z" fill="white"/>
<path d="M107.927 125.069H107.659V142.696H107.927V125.069Z" fill="white"/>
<path d="M136.386 104.457H136.119V122.101H136.386V104.457Z" fill="white"/>
<path d="M23.1219 105.078H22.8545V122.734H23.1219V105.078Z" fill="white"/>
<path d="M27.1552 79.4415H26.8878V97.4635H27.1552V79.4415Z" fill="white"/>
<path d="M136.253 104.457L153.308 104.448C156.761 104.446 159.556 102.843 159.554 100.866L159.537 88.4124C159.533 86.4352 156.732 84.8348 153.279 84.8364L139.932 84.8423C137.722 84.8445 135.821 84.0269 135.043 82.8422C134.574 82.1281 134.062 81.4246 133.511 80.7308C132.592 79.5796 132.922 78.2292 134.486 77.3333L143.923 71.9262C146.364 70.5283 146.362 68.2617 143.92 66.8638L128.533 58.0624C126.091 56.6645 122.132 56.6651 119.693 58.0646L110.184 63.5122C108.687 64.3702 106.437 64.6132 104.491 64.1368C103.133 63.8048 101.668 63.4685 100.405 63.1866C98.4239 62.7442 97.1352 61.6539 97.1352 60.4367V52.7176C97.1352 50.7409 94.3383 49.1379 90.8837 49.1379H69.1333C65.6803 49.1379 62.8812 50.7409 62.8812 52.7176V60.362C62.8812 61.6245 61.4549 62.7101 59.3875 63.1562C58.0784 63.4381 56.7919 63.7472 55.522 64.0803C53.5135 64.6095 51.1563 64.424 49.5875 63.5303L40.1159 58.1391C37.6677 56.7444 33.7101 56.7514 31.2763 58.1525L15.9388 66.9853C13.5044 68.3859 13.5157 70.6535 15.965 72.0456L25.5062 77.4778C27.0086 78.3337 27.4381 79.6202 26.6117 80.7367C26.0354 81.5137 25.451 82.3526 24.9631 83.0773C24.1945 84.2114 22.2915 84.9522 20.1689 84.9538L6.68078 84.9735C3.22931 84.9778 0.436677 86.5846 0.445823 88.5618L0.499385 101.014C0.508472 102.992 3.31241 104.59 6.76596 104.587L20.1175 104.566C22.3258 104.564 24.2277 105.379 25.0108 106.562C25.4821 107.275 25.9957 107.978 26.5485 108.671C27.4692 109.823 27.1436 111.172 25.5828 112.068L16.1588 117.487C13.7239 118.887 13.7304 121.152 16.177 122.548L31.5896 131.336C34.0357 132.73 37.9938 132.726 40.4297 131.327L49.9249 125.868C51.4198 125.008 53.6677 124.762 55.6183 125.238C56.9723 125.568 58.4384 125.903 59.7029 126.183C61.6835 126.624 62.9759 127.713 62.9797 128.931L63.0006 136.65C63.006 138.628 65.8098 140.228 69.2629 140.223L91.0143 140.204C94.4668 140.201 97.261 138.595 97.2535 136.618L97.2342 128.975C97.2299 127.711 98.6573 126.623 100.723 126.175C101.971 125.906 103.199 125.613 104.409 125.296C106.42 124.77 108.777 124.959 110.342 125.852L119.795 131.251C122.242 132.647 126.2 132.646 128.637 131.245L143.999 122.429C146.436 121.03 146.432 118.764 143.988 117.367L134.464 111.927C132.965 111.07 132.537 109.783 133.368 108.668C134.755 106.805 136.183 104.587 136.252 104.457L136.253 104.457ZM49.6887 91.4981C53.3067 80.4893 73.2259 74.2705 91.1343 78.2216C104.74 81.2225 113.024 89.6499 110.329 97.8528C106.712 108.864 86.7921 115.08 68.8826 111.13C55.2783 108.129 46.9919 99.7026 49.6887 91.4981H49.6887Z" fill="url(#paint1_linear_527_920)"/>
<path d="M69.2474 140.667C65.4989 140.667 62.5608 138.905 62.555 136.651L62.5339 128.932C62.5304 127.936 61.3535 127.005 59.6057 126.616C58.5905 126.391 57.0558 126.045 55.5128 125.669C53.654 125.216 51.5501 125.445 50.1479 126.251L40.6527 131.711C38.0981 133.179 33.9328 133.183 31.3677 131.72L15.9553 122.932C14.6266 122.174 13.8935 121.139 13.8917 120.016C13.8894 118.896 14.6156 117.861 15.9361 117.102L25.36 111.684C26.0617 111.281 26.4873 110.783 26.5894 110.246C26.6712 109.817 26.5363 109.368 26.1995 108.947C25.6315 108.235 25.1067 107.514 24.6385 106.806C23.9269 105.732 22.1154 105.01 20.1288 105.01H20.1183L6.76665 105.03H6.75267C3.00536 105.03 0.0636928 103.268 0.0532314 101.016L2.80903e-05 88.5635C-0.00349887 87.817 0.325166 87.0909 0.950395 86.4648C2.15823 85.256 4.30011 84.5322 6.68021 84.5293L20.1685 84.5096C22.1346 84.5084 23.9128 83.8329 24.5929 82.8291C24.9864 82.2448 25.5947 81.3607 26.2526 80.4725C26.5346 80.0921 26.6356 79.6994 26.5521 79.3062C26.4401 78.7776 25.99 78.2647 25.2842 77.8627L15.744 72.4304C14.4125 71.6741 13.6775 70.6384 13.6745 69.515C13.6716 68.3951 14.3967 67.36 15.716 66.6014L31.0525 57.7687C33.6065 56.2985 37.7718 56.2921 40.3375 57.7542L49.8087 63.1452C51.2326 63.955 53.4831 64.1595 55.4078 63.6512C56.7067 63.3102 58.0138 62.9977 59.2928 62.7224C61.1726 62.317 62.4353 61.3684 62.4353 60.3617V52.7174C62.4353 50.4613 65.3775 48.6938 69.1336 48.6938H90.8835C94.6389 48.6938 97.5812 50.4614 97.5812 52.7174V60.4366C97.5812 61.4322 98.7552 62.3634 100.502 62.7531C101.55 62.9872 103.111 63.3421 104.597 63.7057C106.423 64.1536 108.578 63.9206 109.962 63.1278L119.47 57.6798C122.029 56.2125 126.194 56.2119 128.755 57.678L144.142 66.4794C145.468 67.238 146.198 68.2737 146.198 69.3953C146.199 70.517 145.47 71.5521 144.145 72.3107L134.708 77.7174C134.003 78.1217 133.576 78.6201 133.472 79.1591C133.391 79.5867 133.525 80.0345 133.86 80.4539C134.426 81.1666 134.949 81.8881 135.416 82.599C136.124 83.676 137.935 84.3986 139.925 84.3986H139.931L153.279 84.3928H153.285C157.037 84.3928 159.978 86.1574 159.983 88.4112L160 100.866C160.001 101.987 159.273 103.023 157.949 103.782C156.703 104.497 155.055 104.891 153.308 104.892L136.501 104.9C136.087 105.551 134.88 107.383 133.727 108.932C133.443 109.312 133.341 109.705 133.423 110.098C133.534 110.627 133.983 111.139 134.686 111.543L144.21 116.982C145.537 117.74 146.269 118.776 146.27 119.898C146.272 121.019 145.544 122.054 144.223 122.813L128.86 131.629C126.307 133.097 122.14 133.1 119.574 131.636L110.12 126.237C108.7 125.426 106.451 125.221 104.523 125.725C103.308 126.043 102.062 126.34 100.818 126.609C98.9378 127.016 97.6769 127.966 97.6804 128.974L97.6996 136.616C97.7026 137.363 97.3733 138.089 96.7469 138.714C95.5379 139.923 93.3954 140.646 91.0147 140.647L69.2637 140.667H69.2474V140.667ZM53.5764 124.555C54.2992 124.555 55.0289 124.637 55.7248 124.807C57.2601 125.181 58.7885 125.525 59.8002 125.749C61.9981 126.239 63.4213 127.487 63.426 128.929L63.447 136.649C63.4517 138.347 66.1073 139.779 69.2486 139.779H69.2626L91.0137 139.76C93.1304 139.758 95.0849 139.118 96.1147 138.088C96.5765 137.627 96.8094 137.133 96.8077 136.619L96.7884 128.976C96.7838 127.518 98.2911 126.248 100.629 125.741C101.86 125.475 103.094 125.182 104.296 124.867C106.471 124.297 108.93 124.534 110.564 125.467L120.018 130.866C122.338 132.189 126.104 132.188 128.414 130.86L143.777 122.044C144.811 121.451 145.379 120.689 145.378 119.9C145.378 119.108 144.805 118.345 143.766 117.752L134.242 112.312C133.301 111.773 132.716 111.07 132.55 110.279C132.416 109.636 132.575 108.987 133.01 108.403C134.383 106.559 135.773 104.399 135.861 104.245C135.94 104.105 136.091 104.013 136.253 104.013L153.308 104.004C154.901 104.004 156.391 103.652 157.504 103.013C158.539 102.42 159.109 101.658 159.108 100.867L159.091 88.4131C159.088 86.7147 156.429 85.2805 153.285 85.2805H153.28L139.932 85.2863H139.925C137.611 85.2863 135.548 84.4226 134.67 83.0848C134.218 82.3959 133.71 81.6965 133.161 81.0059C132.66 80.3786 132.464 79.6827 132.596 78.9932C132.75 78.1928 133.326 77.4858 134.264 76.9485L143.7 71.5418C144.736 70.9482 145.307 70.1861 145.306 69.3955C145.306 68.6049 144.735 67.8423 143.698 67.2486L128.311 58.4473C125.995 57.1223 122.23 57.1217 119.916 58.449L110.407 63.897C108.814 64.8095 106.45 65.0744 104.384 64.5678C103.214 64.2815 101.804 63.9533 100.307 63.6198C98.1095 63.129 96.6893 61.8795 96.6893 60.4367V52.7175C96.6893 51.0173 94.0307 49.5814 90.8836 49.5814H69.1337C65.9866 49.5814 63.3274 51.0173 63.3274 52.7175V60.3618C63.3274 61.8192 61.8178 63.0861 59.4821 63.5902C58.2158 63.8626 56.9216 64.1722 55.6361 64.5097C53.4656 65.0819 51.0038 64.849 49.3657 63.9155L39.8945 58.5245C37.574 57.2024 33.8085 57.2088 31.4997 58.5367L16.1627 67.3694C15.1311 67.963 14.5648 68.7239 14.5666 69.5127C14.569 70.305 15.144 71.0678 16.1866 71.6603L25.7274 77.0925C26.6707 77.6298 27.2575 78.3321 27.425 79.1233C27.5616 79.7651 27.4045 80.4146 26.9708 80.9995C26.3222 81.8743 25.7226 82.7467 25.3338 83.3241C24.4809 84.5829 22.454 85.3961 20.1692 85.3973L6.68153 85.417C4.56535 85.4199 2.61201 86.0612 1.5834 87.0905C1.1222 87.5523 0.889839 88.0466 0.89223 88.5595L0.945374 101.012C0.953563 102.71 3.61206 104.142 6.75338 104.142H6.76564L20.1173 104.123H20.1295C22.439 104.123 24.4997 104.984 25.3836 106.318C25.8378 107.005 26.3474 107.704 26.8985 108.395C27.4011 109.025 27.5979 109.722 27.4659 110.412C27.3135 111.21 26.7397 111.916 25.8062 112.453L16.3823 117.871C15.3501 118.464 14.7821 119.226 14.7839 120.015C14.7851 120.806 15.3589 121.569 16.3992 122.162L31.8116 130.95C34.1309 132.272 37.8969 132.269 40.2069 130.942L49.702 125.483C50.7575 124.876 52.1533 124.555 53.5766 124.555L53.5764 124.555ZM80.0275 112.772C76.3105 112.772 72.5142 112.385 68.7862 111.564C60.1883 109.667 53.2874 105.451 50.3265 100.284C48.6657 97.3863 48.299 94.3002 49.2652 91.3604C52.9266 80.2187 72.9304 73.7507 91.2308 77.7883C99.8281 79.6843 106.729 83.9009 109.69 89.0665C111.352 91.965 111.719 95.0506 110.753 97.9904C107.839 106.862 94.5583 112.771 80.0275 112.772V112.772ZM79.9055 77.4572C65.7739 77.4572 52.9138 83.1125 50.1128 91.6356V91.6362C49.2267 94.3314 49.5687 97.1702 51.1018 99.8445C53.9395 104.797 60.6232 108.854 68.9789 110.697C86.8717 114.642 106.378 108.455 109.905 97.715C110.791 95.0192 110.449 92.1811 108.915 89.5062C106.077 84.5543 99.3938 80.4975 91.0382 78.6549C87.3452 77.84 83.581 77.4572 79.9055 77.4572L79.9055 77.4572Z" fill="white"/>
<path opacity="0.39" d="M17.2595 18.5541H11.5524V24.2328H17.2595V18.5541Z" fill="white"/>
<path opacity="0.39" d="M54.5691 46.2984H48.8619V51.9771H54.5691V46.2984Z" fill="white"/>
<path opacity="0.66" d="M119.841 47.6828H114.134V53.3615H119.841V47.6828Z" fill="#26DB8D"/>
<path opacity="0.32" d="M125.548 14.0623H119.841V19.741H125.548V14.0623Z" fill="white"/>
<path d="M159.247 53.8374H153.54V59.5161H159.247V53.8374Z" fill="white"/>
<path d="M97.5934 33.6102H91.8862V39.2889H97.5934V33.6102Z" fill="white"/>
<path d="M60.6495 21.3935H54.9424V27.0722H60.6495V21.3935Z" fill="#26DB8D"/>
<path d="M6.15296 58.2243H0.445801V63.903H6.15296V58.2243Z" fill="#26DB8D"/>
<path opacity="0.13" d="M80.8466 1H75.1394V6.67871H80.8466V1Z" fill="white"/>
<defs>
<linearGradient id="paint0_linear_527_920" x1="114.067" y1="113.533" x2="69.3369" y2="87.9489" gradientUnits="userSpaceOnUse">
<stop stop-color="white"/>
<stop offset="1" stop-color="#E1F0FD" stop-opacity="0.9"/>
</linearGradient>
<linearGradient id="paint1_linear_527_920" x1="31.3065" y1="15.789" x2="98.3809" y2="125.553" gradientUnits="userSpaceOnUse">
<stop stop-color="#0F9BE3" stop-opacity="0"/>
<stop offset="0.9996" stop-color="#0F9BE3" stop-opacity="0.8"/>
</linearGradient>
</defs>
</svg>
