<svg width="160" height="160" viewBox="0 0 160 160" fill="none" xmlns="http://www.w3.org/2000/svg">
<g clip-path="url(#clip0_527_718)">
<path d="M80.5 148.004C63.0765 148.004 45.6531 144.228 32.3891 136.676C19.5508 129.367 12.4807 119.596 12.4807 109.164C12.4807 98.7312 19.5508 88.9603 32.3891 81.6512C58.9171 66.5477 102.082 66.5477 128.611 81.6512C141.449 88.9603 148.52 98.7312 148.52 109.164C148.52 119.596 141.449 129.367 128.611 136.676C115.347 144.228 97.9235 148.004 80.5 148.004V148.004ZM80.5 70.7273C63.1496 70.7273 45.7995 74.488 32.591 82.0083C19.8866 89.2409 12.8898 98.8852 12.8898 109.164C12.8898 119.442 19.8866 129.087 32.591 136.319C59.0079 151.36 101.991 151.36 128.41 136.319C141.114 129.087 148.11 119.442 148.11 109.164C148.11 98.8852 141.114 89.2409 128.41 82.0083C115.2 74.488 97.8501 70.7273 80.5 70.7273V70.7273Z" fill="url(#paint0_linear_527_718)"/>
<path d="M80.5 157C60.1315 157 39.7633 152.586 24.257 143.758C9.25979 135.219 1.0003 123.809 1 111.627C1 99.4454 9.25949 88.0348 24.2571 79.4957C55.2696 61.8398 105.731 61.8398 136.743 79.4957C151.741 88.0348 160 99.4454 160 111.627C160 123.809 151.741 135.219 136.743 143.758C121.237 152.586 100.869 157 80.5001 157L80.5 157ZM80.5 66.6194C60.1978 66.6194 39.8957 71.0191 24.4398 79.819C9.56333 88.2886 1.37047 99.5848 1.37047 111.627C1.37047 123.67 9.56363 134.965 24.4398 143.435C55.3517 161.034 105.649 161.034 136.56 143.435C151.437 134.965 159.63 123.669 159.63 111.627C159.63 99.5854 151.437 88.2886 136.56 79.819C121.105 71.019 100.802 66.6194 80.5 66.6194V66.6194Z" fill="url(#paint1_linear_527_718)"/>
<path d="M125.486 82.4048C100.744 68.318 60.2562 68.318 35.514 82.4048C10.7709 96.4917 10.7709 119.543 35.514 133.629C60.2562 147.716 100.744 147.716 125.486 133.629C150.229 119.543 150.229 96.4917 125.486 82.4048Z" fill="#041742"/>
<path d="M80.5 144.353C64.1844 144.353 47.8689 140.817 35.4482 133.745C23.4379 126.908 16.8238 117.771 16.8235 108.018C16.8235 98.2638 23.4379 89.1266 35.4482 82.289C60.2896 68.1446 100.71 68.1446 125.552 82.289C137.562 89.1266 144.177 98.2638 144.177 108.018C144.177 117.772 137.562 126.908 125.552 133.745C113.131 140.817 96.8156 144.353 80.5 144.353V144.353ZM80.5 71.9445C64.2322 71.9445 47.9644 75.4701 35.5798 82.5212C23.6564 89.3092 17.0898 98.3641 17.0901 108.018C17.0901 117.671 23.6565 126.725 35.5798 133.513C60.3489 147.615 100.651 147.615 125.421 133.513C137.344 126.725 143.91 117.671 143.91 108.018C143.91 98.3642 137.344 89.3092 125.421 82.5212C113.036 75.4701 96.7679 71.9445 80.5 71.9445V71.9445Z" fill="white"/>
<path d="M42.3882 135.798C44.4013 136.68 46.4836 137.48 48.6285 138.204V120.259C46.4893 119.565 44.4023 118.802 42.3882 117.957V135.798V135.798Z" fill="url(#paint2_linear_527_718)"/>
<path d="M29.9062 111.036V128.506C31.7063 129.907 33.6292 131.27 35.8236 132.54C35.9274 132.601 36.0422 132.65 36.1468 132.71V114.957C35.7912 114.764 35.4273 114.578 35.0777 114.379C33.2085 113.315 31.4961 112.194 29.9061 111.036H29.9062Z" fill="url(#paint3_linear_527_718)"/>
<path d="M54.8696 140.056C56.9169 140.579 58.995 141.043 61.1105 141.436V123.356C58.9984 122.978 56.916 122.536 54.8696 122.032V140.056Z" fill="url(#paint4_linear_527_718)"/>
<path d="M129.759 112.07V129.664C132.176 127.931 134.213 126.084 136 124.177V107.062C134.199 108.808 132.11 110.481 129.759 112.07Z" fill="url(#paint5_linear_527_718)"/>
<path d="M142.241 98.8067V114.38C143.474 111.017 143.772 104.16 143.772 104.16V95.0814C143.373 96.3346 142.868 97.5786 142.241 98.8067V98.8067Z" fill="url(#paint6_linear_527_718)"/>
<path d="M104.796 140.45C106.923 139.943 108.998 139.352 111.037 138.706V120.725C108.999 121.346 106.918 121.907 104.796 122.394V140.45Z" fill="url(#paint7_linear_527_718)"/>
<path d="M17.5262 104.16H17.5692C16.8414 110.442 18.8796 116.81 23.6654 122.589V105.553C20.7522 102.39 18.708 99.0313 17.5262 95.5927V104.16V104.16Z" fill="url(#paint8_linear_527_718)"/>
<path d="M117.277 136.423C119.442 135.53 121.523 134.549 123.518 133.479V115.746C121.523 116.765 119.433 117.693 117.277 118.545V136.423V136.423Z" fill="url(#paint9_linear_527_718)"/>
<path d="M67.3512 142.4C69.418 142.653 71.4988 142.849 73.5921 142.982V124.841C71.4994 124.713 69.4172 124.526 67.3512 124.282V142.4V142.4Z" fill="url(#paint10_linear_527_718)"/>
<path d="M79.8328 125.053V143.203C81.9162 143.218 83.9975 143.176 86.0741 143.073V124.923C83.9977 125.023 81.9152 125.066 79.8328 125.052V125.053Z" fill="url(#paint11_linear_527_718)"/>
<path d="M92.3142 142.586C94.4138 142.36 96.4974 142.079 98.5551 141.729V123.614C96.4962 123.952 94.4132 124.229 92.3142 124.448V142.586V142.586Z" fill="url(#paint12_linear_527_718)"/>
<path d="M125.486 63.2071C100.744 49.1202 60.2562 49.1202 35.514 63.2071C10.7709 77.2939 10.7709 100.345 35.514 114.432C60.2562 128.518 100.744 128.518 125.486 114.432C150.229 100.345 150.229 77.2939 125.486 63.2071Z" fill="url(#paint13_linear_527_718)"/>
<path d="M80.5 125.463C64.1286 125.463 47.7574 121.915 35.2943 114.819C23.1827 107.924 16.5121 98.6903 16.5121 88.8196C16.5121 78.949 23.1824 69.7149 35.2943 62.8195C60.2206 48.6279 100.779 48.6279 125.706 62.8195C137.818 69.7149 144.488 78.9489 144.488 88.8196C144.488 98.6903 137.818 107.924 125.706 114.819C113.243 121.915 96.8712 125.463 80.5 125.463ZM80.5 53.0545C64.2878 53.0545 48.0755 56.5678 35.7337 63.5944C23.912 70.3252 17.4014 79.2839 17.4014 88.8196C17.4014 98.3554 23.9119 107.314 35.7337 114.044C60.4173 128.097 100.582 128.097 125.267 114.044C137.088 107.314 143.599 98.3554 143.599 88.8196C143.599 79.2839 137.088 70.3253 125.267 63.5944C112.925 56.5678 96.7123 53.0545 80.5 53.0545V53.0545Z" fill="white"/>
<path d="M114.269 72.8953C95.6959 63.4262 65.3039 63.4262 46.7312 72.8953C28.1578 82.3644 28.1578 97.8594 46.7312 107.328C65.3039 116.797 95.6959 116.797 114.269 107.328C132.842 97.8594 132.842 82.3644 114.269 72.8953V72.8953Z" fill="url(#paint14_linear_527_718)"/>
<path d="M80.4999 114.888C68.196 114.888 55.8964 112.501 46.5296 107.725C37.3901 103.066 32.3564 96.8108 32.3564 90.1121C32.3564 83.4134 37.3898 77.1576 46.5296 72.4977C65.2614 62.9485 95.7394 62.9485 114.471 72.4977C123.61 77.1576 128.644 83.4128 128.644 90.1121C128.643 96.8108 123.61 103.066 114.471 107.725C105.106 112.5 92.801 114.888 80.5 114.888H80.4999ZM80.4999 66.2156C68.3435 66.2156 56.1874 68.5741 46.9329 73.2924C38.1065 77.7924 33.2458 83.7652 33.2458 90.1121C33.2458 96.459 38.1066 102.431 46.9329 106.931C65.4419 116.367 95.5583 116.367 114.067 106.931C122.893 102.431 127.754 96.4584 127.754 90.1121C127.754 83.7658 122.893 77.7924 114.067 73.2924C104.813 68.5741 92.6564 66.2156 80.4999 66.2156Z" fill="white"/>
<path d="M17.0901 86.8946H16.8235V108.412H17.0901V86.8946Z" fill="white"/>
<path d="M144.177 87.2488H143.91V108.766H144.177V87.2488Z" fill="white"/>
<path d="M46.7313 72.8953C65.304 63.4262 95.6958 63.4262 114.269 72.8953C123.013 77.3533 127.637 83.1469 128.148 89.0184C128.722 81.7958 124.098 74.4654 114.269 68.9817C95.6958 58.6197 65.304 58.6197 46.7313 68.9817C36.902 74.4655 32.2779 81.7958 32.8521 89.0184C33.3628 83.1469 37.9871 77.3532 46.7313 72.8953V72.8953Z" fill="url(#paint15_linear_527_718)"/>
<path d="M128.148 89.1125C128.099 89.1125 128.059 89.0752 128.054 89.0267C127.526 82.9547 122.616 77.2561 114.227 72.9796C95.6289 63.4981 65.3704 63.4993 46.7739 72.9796C38.3849 77.2561 33.4738 82.9547 32.9459 89.0267C32.9415 89.0752 32.9007 89.1125 32.8522 89.1125H32.8519C32.803 89.1125 32.7625 89.0752 32.7585 89.0262C32.1608 81.5065 37.2371 74.1706 46.6857 68.8997C65.3309 58.4975 95.6691 58.4975 114.315 68.8997C123.763 74.1706 128.839 81.5065 128.242 89.0262C128.238 89.0752 128.197 89.1125 128.148 89.1125H128.148H128.148ZM80.5 61.2837C68.2872 61.2837 56.0743 63.8774 46.777 69.0643C37.8517 74.0434 32.8547 80.8652 32.8992 87.9263C33.8892 82.1962 38.739 76.8641 46.6888 72.8116L46.7313 72.8956L46.6888 72.8116C65.3319 63.3068 95.6673 63.3056 114.311 72.8116C122.261 76.8641 127.111 82.1962 128.101 87.9263C128.145 80.8652 123.148 74.0434 114.223 69.0643C104.926 63.8774 92.7129 61.2837 80.5 61.2837H80.5Z" fill="white"/>
<path opacity="0.39" d="M33.0266 22.0083H27.2261V27.8237H33.0266V22.0083Z" fill="white"/>
<path opacity="0.66" d="M53.6268 40.5522H47.8263V46.3675H53.6268V40.5522Z" fill="#26DB8D"/>
<path opacity="0.66" d="M120.088 46.41H114.287V52.2254H120.088V46.41Z" fill="white"/>
<path opacity="0.32" d="M117.188 13.2005H111.387V19.0159H117.188V13.2005Z" fill="white"/>
<path d="M141.8 40.5522H136V46.3675H141.8V40.5522Z" fill="#26DB8D"/>
<path d="M95.9118 31.9062H90.1112V37.7216H95.9118V31.9062Z" fill="white"/>
<path d="M70.2516 22.0083H64.451V27.8237H70.2516V22.0083Z" fill="#26DB8D"/>
<path d="M23.4458 56.6322H17.6453V62.4476H23.4458V56.6322Z" fill="white"/>
<path opacity="0.13" d="M82.733 2H76.9325V7.81538H82.733V2Z" fill="white"/>
</g>
<defs>
<linearGradient id="paint0_linear_527_718" x1="12.4807" y1="109.164" x2="148.52" y2="109.164" gradientUnits="userSpaceOnUse">
<stop offset="0.0441" stop-color="#0F9BE3"/>
<stop offset="0.1609" stop-color="#3CADE8"/>
<stop offset="0.3283" stop-color="#76C6EF"/>
<stop offset="0.4901" stop-color="#A7DAF4"/>
<stop offset="0.6422" stop-color="#CDEAF9"/>
<stop offset="0.7821" stop-color="#E8F5FC"/>
<stop offset="0.9058" stop-color="#F9FCFE"/>
<stop offset="1" stop-color="white"/>
</linearGradient>
<linearGradient id="paint1_linear_527_718" x1="1" y1="111.627" x2="160" y2="111.627" gradientUnits="userSpaceOnUse">
<stop offset="0.0441" stop-color="#0F9BE3"/>
<stop offset="0.1609" stop-color="#3CADE8"/>
<stop offset="0.3283" stop-color="#76C6EF"/>
<stop offset="0.4901" stop-color="#A7DAF4"/>
<stop offset="0.6422" stop-color="#CDEAF9"/>
<stop offset="0.7821" stop-color="#E8F5FC"/>
<stop offset="0.9058" stop-color="#F9FCFE"/>
<stop offset="1" stop-color="white"/>
</linearGradient>
<linearGradient id="paint2_linear_527_718" x1="25.7643" y1="128.08" x2="153.55" y2="128.08" gradientUnits="userSpaceOnUse">
<stop stop-color="#0F9BE3" stop-opacity="0"/>
<stop offset="0.9996" stop-color="#0F9BE3" stop-opacity="0.8"/>
</linearGradient>
<linearGradient id="paint3_linear_527_718" x1="25.7643" y1="121.873" x2="153.548" y2="121.873" gradientUnits="userSpaceOnUse">
<stop stop-color="#0F9BE3" stop-opacity="0"/>
<stop offset="0.9996" stop-color="#0F9BE3" stop-opacity="0.8"/>
</linearGradient>
<linearGradient id="paint4_linear_527_718" x1="25.7637" y1="131.734" x2="153.552" y2="131.734" gradientUnits="userSpaceOnUse">
<stop stop-color="#0F9BE3" stop-opacity="0"/>
<stop offset="0.9996" stop-color="#0F9BE3" stop-opacity="0.8"/>
</linearGradient>
<linearGradient id="paint5_linear_527_718" x1="25.7649" y1="118.363" x2="153.55" y2="118.363" gradientUnits="userSpaceOnUse">
<stop stop-color="#0F9BE3" stop-opacity="0"/>
<stop offset="0.9996" stop-color="#0F9BE3" stop-opacity="0.8"/>
</linearGradient>
<linearGradient id="paint6_linear_527_718" x1="41.9613" y1="104.731" x2="149.589" y2="104.731" gradientUnits="userSpaceOnUse">
<stop stop-color="#0F9BE3" stop-opacity="0"/>
<stop offset="0.9996" stop-color="#0F9BE3" stop-opacity="0.8"/>
</linearGradient>
<linearGradient id="paint7_linear_527_718" x1="25.7628" y1="130.587" x2="153.551" y2="130.587" gradientUnits="userSpaceOnUse">
<stop stop-color="#0F9BE3" stop-opacity="0"/>
<stop offset="0.9996" stop-color="#0F9BE3" stop-opacity="0.8"/>
</linearGradient>
<linearGradient id="paint8_linear_527_718" x1="25.7642" y1="109.091" x2="153.551" y2="109.091" gradientUnits="userSpaceOnUse">
<stop stop-color="#0F9BE3" stop-opacity="0"/>
<stop offset="0.9996" stop-color="#0F9BE3" stop-opacity="0.8"/>
</linearGradient>
<linearGradient id="paint9_linear_527_718" x1="25.7627" y1="126.084" x2="153.551" y2="126.084" gradientUnits="userSpaceOnUse">
<stop stop-color="#0F9BE3" stop-opacity="0"/>
<stop offset="0.9996" stop-color="#0F9BE3" stop-opacity="0.8"/>
</linearGradient>
<linearGradient id="paint10_linear_527_718" x1="25.7636" y1="133.632" x2="153.552" y2="133.632" gradientUnits="userSpaceOnUse">
<stop stop-color="#0F9BE3" stop-opacity="0"/>
<stop offset="0.9996" stop-color="#0F9BE3" stop-opacity="0.8"/>
</linearGradient>
<linearGradient id="paint11_linear_527_718" x1="25.7639" y1="134.064" x2="153.551" y2="134.064" gradientUnits="userSpaceOnUse">
<stop stop-color="#0F9BE3" stop-opacity="0"/>
<stop offset="0.9996" stop-color="#0F9BE3" stop-opacity="0.8"/>
</linearGradient>
<linearGradient id="paint12_linear_527_718" x1="25.7631" y1="133.1" x2="153.551" y2="133.1" gradientUnits="userSpaceOnUse">
<stop stop-color="#0F9BE3" stop-opacity="0"/>
<stop offset="0.9996" stop-color="#0F9BE3" stop-opacity="0.8"/>
</linearGradient>
<linearGradient id="paint13_linear_527_718" x1="16.9567" y1="88.8193" x2="144.043" y2="88.8193" gradientUnits="userSpaceOnUse">
<stop stop-color="#0F9BE3" stop-opacity="0"/>
<stop offset="0.9996" stop-color="#0F9BE3" stop-opacity="0.8"/>
</linearGradient>
<linearGradient id="paint14_linear_527_718" x1="32.8012" y1="90.1118" x2="128.199" y2="90.1118" gradientUnits="userSpaceOnUse">
<stop stop-color="#0F9BE3" stop-opacity="0"/>
<stop offset="0.9996" stop-color="#0F9BE3" stop-opacity="0.8"/>
</linearGradient>
<linearGradient id="paint15_linear_527_718" x1="32.8046" y1="75.1143" x2="128.195" y2="75.1143" gradientUnits="userSpaceOnUse">
<stop stop-color="white"/>
<stop offset="1" stop-color="#E1F0FD" stop-opacity="0.9"/>
</linearGradient>
<clipPath id="clip0_527_718">
<rect width="160" height="160" fill="white"/>
</clipPath>
</defs>
</svg>
