<svg width="160" height="160" viewBox="0 0 160 160" fill="none" xmlns="http://www.w3.org/2000/svg">
<path d="M10.2037 118.015L80.502 77.1585L150.796 118.014L80.4992 158.477L10.2037 118.015Z" fill="#041742"/>
<path d="M80.4992 158.61C80.4762 158.61 80.4536 158.604 80.4331 158.593L10.1377 118.131C10.0966 118.107 10.0713 118.062 10.071 118.015C10.071 117.968 10.0963 117.923 10.1374 117.899L80.4356 77.0434C80.4768 77.0189 80.5272 77.0189 80.5684 77.0434L150.863 117.898C150.903 117.922 150.929 117.966 150.929 118.014C150.929 118.061 150.903 118.106 150.862 118.13L80.5652 158.593C80.5446 158.604 80.522 158.61 80.4991 158.61L80.4992 158.61ZM10.4701 118.014L80.4992 158.323L150.53 118.013L80.5021 77.3125L10.4701 118.014Z" fill="white"/>
<g opacity="0.53">
<path d="M80.5021 34.5091C80.3896 34.5091 80.2982 34.417 80.2982 34.3039V0.442718C80.2982 0.329637 80.3896 0.23756 80.5021 0.23756C80.6146 0.23756 80.706 0.329637 80.706 0.442718V34.304C80.706 34.4171 80.6146 34.5091 80.5021 34.5091V34.5091Z" fill="url(#paint0_linear_527_717)"/>
</g>
<path d="M19.5894 105.521L80.5017 70.1859L141.41 105.521L80.4992 141.314L19.5894 105.521Z" fill="url(#paint1_linear_527_717)"/>
<path d="M80.4994 141.507L80.4156 141.458L19.2584 105.52L19.5061 105.377L80.5016 69.9933L80.5849 70.0417L141.741 105.52L141.494 105.665L80.4993 141.507L80.4994 141.507ZM19.9202 105.522L80.4994 141.12L141.08 105.522L80.5017 70.3791L19.9202 105.522Z" fill="white"/>
<path d="M19.5895 105.497V112.57L80.4993 147.905L141.41 112.569V105.497L80.4993 141.314L19.5895 105.497Z" fill="url(#paint2_linear_527_717)"/>
<path d="M80.4994 148.072C80.4708 148.072 80.442 148.065 80.4165 148.05L19.5061 112.715C19.4548 112.685 19.4232 112.63 19.4232 112.57V105.497C19.4232 105.437 19.4551 105.382 19.5067 105.352C19.5586 105.323 19.6224 105.324 19.6732 105.353L80.4994 141.12L141.326 105.353C141.377 105.323 141.44 105.322 141.493 105.352C141.545 105.382 141.577 105.437 141.577 105.497V112.569C141.577 112.628 141.545 112.684 141.493 112.713L80.5826 148.05C80.5568 148.065 80.5281 148.072 80.4994 148.072V148.072ZM19.7556 112.474L80.4994 147.712L141.244 112.473V105.789L80.5832 141.458C80.5316 141.488 80.4673 141.488 80.4156 141.458L19.7556 105.789V112.474V112.474Z" fill="white"/>
<path d="M80.9307 129.518L119.814 106.961L80.9316 84.4055L42.0498 106.962L80.9307 129.518Z" fill="#0E9DE5"/>
<path d="M119.814 107.167V66.0765H42.0498V107.167L80.9307 129.725L119.814 107.167Z" fill="url(#paint3_linear_527_717)"/>
<path d="M69.9718 107.43L67.429 105.954V103.661L69.9718 105.137V107.43Z" fill="white"/>
<path d="M57.2008 89.4161L49.1726 84.7584V82.465L57.2008 87.1227V89.4161Z" fill="white"/>
<path d="M61.3319 91.8127L58.7891 90.3366V88.0432L61.3319 89.5193V91.8127Z" fill="white"/>
<path d="M51.8713 91.5629L43.4863 86.6989V84.4055L51.8713 89.2696V91.5629Z" fill="#26DB8D"/>
<path d="M59.5218 96.0023L53.4586 92.4843V90.191L59.5218 93.7079V96.0023Z" fill="white"/>
<path d="M65.208 99.2999L61.11 96.9227V94.6294L65.208 97.0066V99.2999Z" fill="white"/>
<path d="M46.319 93.5808L43.4863 91.9389V89.6446L46.319 91.2875V93.5808Z" fill="white"/>
<path d="M51.6485 96.674L47.9062 94.5022V92.2088L51.6485 94.3797V96.674Z" fill="white"/>
<path d="M59.2668 101.093L53.2367 97.5944V95.3011L59.2668 98.7996V101.093Z" fill="#26DB8D"/>
<path d="M69.9718 91.3495L67.429 89.8734V87.58L69.9718 89.0561V91.3495Z" fill="white"/>
<path d="M46.319 77.4999L43.4863 75.858V73.5637L46.319 75.2065V77.4999Z" fill="#26DB8D"/>
<path d="M51.6485 80.5931L47.9062 78.4213V76.1279L51.6485 78.2987V80.5931Z" fill="white"/>
<path d="M59.2668 85.0121L53.2367 81.5135V79.2202L59.2668 82.7187V85.0121Z" fill="white"/>
<path d="M52.1611 102.21L43.4863 97.1779V94.8846L52.1611 99.9164V102.21Z" fill="white"/>
<path d="M61.8767 107.846L53.7484 103.131V100.838L61.8767 105.553V107.846Z" fill="white"/>
<path d="M66.0077 110.243L63.4648 108.767V106.474L66.0077 107.949V110.243Z" fill="white"/>
<path d="M69.9718 112.543L67.429 111.067V108.774L69.9718 110.249V112.543Z" fill="white"/>
<path d="M73.5288 98.8872L77.6259 101.265V98.971L73.5288 96.5938V98.8872Z" fill="white"/>
<path d="M72.4293 103.489L77.6259 106.504V104.21L72.4293 101.195V103.489Z" fill="#26DB8D"/>
<path d="M72.4293 92.3411L77.6259 95.3568V93.0625L72.4293 90.0477V92.3411Z" fill="white"/>
<path d="M74.7943 110.101L77.626 111.743V109.45L74.7943 107.807V110.101Z" fill="white"/>
<path d="M72.4293 119.208L77.6259 122.223V119.928L72.4293 116.914V119.208Z" fill="white"/>
<path d="M52.4812 107.635L50.2721 106.353V104.06L52.4812 105.342V107.635Z" fill="white"/>
<path d="M59.045 111.443L54.0703 108.556V106.263L59.045 109.149V111.443Z" fill="white"/>
<path d="M83.6901 114.617L98.8149 105.843V103.549L83.6901 112.324V114.617Z" fill="white"/>
<path d="M104.115 102.873L112.143 98.2145V95.9212L104.115 100.579V102.873Z" fill="white"/>
<path d="M109.446 78.4173L117.83 73.5532V71.2599L109.446 76.1239V78.4173Z" fill="white"/>
<path d="M101.794 82.8566L107.857 79.3387V77.0454L101.794 80.5623V82.8566Z" fill="#26DB8D"/>
<path d="M96.1089 86.1543L100.206 83.7771V81.4838L96.1089 83.861V86.1543Z" fill="white"/>
<path d="M114.998 80.4361L117.83 78.7933V76.4989L114.998 78.1418V80.4361Z" fill="white"/>
<path d="M109.667 83.5284L113.41 81.3575V79.0632L109.667 81.234V83.5284Z" fill="white"/>
<path d="M90.7454 93.9189L94.4876 91.7481V89.4548L90.7454 91.6256V93.9189Z" fill="white"/>
<path d="M102.049 87.9474L108.079 84.4497V82.1554L102.049 85.654V87.9474Z" fill="white"/>
<path d="M109.155 89.065L117.83 84.0324V81.739L109.155 86.7707V89.065Z" fill="white"/>
<path d="M99.4403 94.7003L107.568 89.9855V87.6921L99.4403 92.4069V94.7003Z" fill="#26DB8D"/>
<path d="M95.3092 97.0969L97.852 95.6217V93.3284L95.3092 94.8035V97.0969Z" fill="#26DB8D"/>
<path d="M95.3092 116.502L97.852 115.026V112.733L95.3092 114.208V116.502Z" fill="white"/>
<path d="M91.3441 99.3976L93.8878 97.9215V95.6282L91.3441 97.1033V99.3976Z" fill="white"/>
<path d="M112.632 92.2862L117.83 89.2714V86.9781L112.632 89.9929V92.2862Z" fill="#26DB8D"/>
<path d="M113.732 105.365L117.83 102.988V100.694L113.732 103.071V105.365Z" fill="white"/>
<path d="M110.743 107.099L112.143 106.286V103.993L110.743 104.805V107.099Z" fill="white"/>
<path d="M106.612 109.495L109.155 108.02V105.727L106.612 107.201V109.495Z" fill="white"/>
<path d="M87.7881 120.416L83.6901 122.793V120.5L87.7881 118.122V120.416Z" fill="#26DB8D"/>
<path d="M88.8876 90.3439L83.6901 93.3587V91.0654L88.8876 88.0496V90.3439Z" fill="white"/>
<path d="M86.5217 96.955L83.6901 98.5978V96.3045L86.5217 94.6616V96.955Z" fill="white"/>
<path d="M89.1773 100.654L83.6901 103.838V101.544L89.1773 98.361V100.654Z" fill="white"/>
<path d="M88.8876 106.062L83.6901 109.077V106.784L88.8876 103.769V106.062Z" fill="white"/>
<path d="M108.835 94.4903L111.044 93.2076V90.9143L108.835 92.1959V94.4903Z" fill="white"/>
<path d="M102.271 98.2975L107.247 95.4107V93.1173L102.271 96.0041V98.2975Z" fill="white"/>
<path d="M19.5894 53.6387L80.5017 18.3034L141.41 53.6387L80.4992 89.0381L19.5894 53.6387Z" fill="#011645"/>
<path d="M19.5894 46.6661L80.5017 11.3307L141.41 46.6661L80.4992 82.4586L19.5894 46.6661Z" fill="url(#paint4_linear_527_717)"/>
<path d="M80.4994 82.6523L80.4156 82.6028L19.2584 46.6646L19.5061 46.5213L80.5017 11.1379L80.5849 11.1863L141.741 46.6647L141.494 46.8098L80.4994 82.6524V82.6523ZM19.9202 46.6669L80.4994 82.2654L141.08 46.6669L80.5017 11.5237L19.9202 46.6669Z" fill="white"/>
<path d="M19.5895 46.6422V53.7148L80.4993 89.0498L141.41 53.7136V46.6422L80.4993 82.4586L19.5895 46.6422Z" fill="url(#paint5_linear_527_717)"/>
<path d="M80.4994 89.217C80.4708 89.217 80.442 89.2094 80.4165 89.1942L19.5061 53.8593C19.4548 53.8296 19.4232 53.7742 19.4232 53.7147V46.6425C19.4232 46.5825 19.4551 46.5277 19.5067 46.4974C19.5586 46.4682 19.6224 46.4688 19.6732 46.4986L80.4994 82.2654L141.326 46.4986C141.377 46.4682 141.44 46.4676 141.493 46.4974C141.545 46.5277 141.577 46.5825 141.577 46.6425V53.7136C141.577 53.773 141.545 53.8284 141.493 53.8581L80.5826 89.1942C80.5568 89.2094 80.5281 89.217 80.4994 89.217V89.217ZM19.7556 53.6186L80.4994 88.8569L141.244 53.6175V46.9339L80.5832 82.6028C80.5316 82.6331 80.4673 82.6331 80.4156 82.6028L19.7556 46.9339V53.6186V53.6186Z" fill="white"/>
<path d="M80.4997 56.7463L90.5305 50.9272L80.5 45.1082L70.4692 50.9272L80.4997 56.7463Z" fill="#00DF84"/>
<path d="M80.4997 57.0032L70.0262 50.9275L80.5 44.8511L90.9735 50.9275L80.4997 57.0032V57.0032ZM70.9124 50.9275L80.4997 56.4892L90.0873 50.9275L80.5 45.3651L70.9124 50.9275V50.9275Z" fill="white"/>
<path d="M80.4833 49.4566C78.9681 49.4566 77.7399 48.2225 77.7399 46.7V2.70327C77.7698 1.18058 79.0225 -0.0295382 80.538 0.000537231C82.0113 0.0297772 83.1987 1.22289 83.2278 2.70327V46.7C83.2272 48.2226 81.9986 49.4566 80.4833 49.4566V49.4566Z" fill="url(#paint6_linear_527_717)"/>
<path d="M80.4991 159C80.464 159 80.4286 158.991 80.3971 158.972L10.1018 118.192C10.0388 118.156 10 118.088 10 118.015V41.1955C10 41.1222 10.0388 41.0545 10.1021 41.0184L80.4003 0.265609C80.4629 0.228313 80.5412 0.228313 80.6038 0.265609L150.898 41.0184C150.961 41.0545 151 41.1222 151 41.1956V118.014C151 118.087 150.961 118.155 150.898 118.191L80.6012 158.972C80.5696 158.991 80.5342 159 80.4991 159V159ZM10.4077 117.896L80.4991 158.558L150.592 117.895V41.3138L80.5021 0.679325L10.4077 41.3138V117.896Z" fill="url(#paint7_linear_527_717)"/>
<defs>
<linearGradient id="paint0_linear_527_717" x1="80.5021" y1="34.5091" x2="80.5021" y2="0.237622" gradientUnits="userSpaceOnUse">
<stop stop-color="white"/>
<stop offset="0.1299" stop-color="#F9FCFE"/>
<stop offset="0.3002" stop-color="#E8F5FC"/>
<stop offset="0.4929" stop-color="#CDEAF9"/>
<stop offset="0.7022" stop-color="#A7DAF4"/>
<stop offset="0.9225" stop-color="#77C6EF"/>
<stop offset="1" stop-color="#65BFED"/>
</linearGradient>
<linearGradient id="paint1_linear_527_717" x1="141.41" y1="105.75" x2="14.1665" y2="105.75" gradientUnits="userSpaceOnUse">
<stop stop-color="#0F9BE3" stop-opacity="0"/>
<stop offset="0.9996" stop-color="#0F9BE3" stop-opacity="0.8"/>
</linearGradient>
<linearGradient id="paint2_linear_527_717" x1="17.8594" y1="126.701" x2="128.143" y2="126.701" gradientUnits="userSpaceOnUse">
<stop stop-color="white"/>
<stop offset="1" stop-color="#E1F0FD" stop-opacity="0.6"/>
</linearGradient>
<linearGradient id="paint3_linear_527_717" x1="80.9316" y1="69.1078" x2="80.9316" y2="112.89" gradientUnits="userSpaceOnUse">
<stop stop-color="#0F9BE3" stop-opacity="0"/>
<stop offset="0.9996" stop-color="#0F9BE3" stop-opacity="0.8"/>
</linearGradient>
<linearGradient id="paint4_linear_527_717" x1="9.99992" y1="46.8947" x2="14.1665" y2="46.8947" gradientUnits="userSpaceOnUse">
<stop stop-color="#0F9BE3" stop-opacity="0"/>
<stop offset="0.9996" stop-color="#0F9BE3" stop-opacity="0.8"/>
</linearGradient>
<linearGradient id="paint5_linear_527_717" x1="10" y1="67.846" x2="10.5939" y2="67.846" gradientUnits="userSpaceOnUse">
<stop stop-color="white"/>
<stop offset="1" stop-color="#E1F0FD" stop-opacity="0.6"/>
</linearGradient>
<linearGradient id="paint6_linear_527_717" x1="80.4838" y1="46.7001" x2="80.4838" y2="2.7044" gradientUnits="userSpaceOnUse">
<stop offset="0.044" stop-color="#00DF84"/>
<stop offset="0.112" stop-color="#00DF84" stop-opacity="0.888"/>
<stop offset="0.289" stop-color="#00DF84" stop-opacity="0.621"/>
<stop offset="0.46" stop-color="#00DF84" stop-opacity="0.399"/>
<stop offset="0.621" stop-color="#00DF84" stop-opacity="0.226"/>
<stop offset="0.769" stop-color="#00DF84" stop-opacity="0.102"/>
<stop offset="0.9" stop-color="#00DF84" stop-opacity="0.026"/>
<stop offset="1" stop-color="#00DF84" stop-opacity="0"/>
</linearGradient>
<linearGradient id="paint7_linear_527_717" x1="10" y1="79.6189" x2="151" y2="79.6189" gradientUnits="userSpaceOnUse">
<stop offset="0.0441" stop-color="#0F9BE3"/>
<stop offset="0.1609" stop-color="#3CADE8"/>
<stop offset="0.3283" stop-color="#76C6EF"/>
<stop offset="0.4901" stop-color="#A7DAF4"/>
<stop offset="0.6422" stop-color="#CDEAF9"/>
<stop offset="0.7821" stop-color="#E8F5FC"/>
<stop offset="0.9058" stop-color="#F9FCFE"/>
<stop offset="1" stop-color="white"/>
</linearGradient>
</defs>
</svg>
