<svg width="38" height="38" viewBox="0 0 38 38" fill="none" xmlns="http://www.w3.org/2000/svg">
<g filter="url(#filter0_d_525_380)">
<path d="M19 23C21.2091 23 23 21.2091 23 19C23 16.7909 21.2091 15 19 15C16.7909 15 15 16.7909 15 19C15 21.2091 16.7909 23 19 23Z" fill="#0E9DE5"/>
</g>
<path d="M2.67053 9.57217L19 0.144337L35.3295 9.57217V28.4278L19 37.8557L2.67053 28.4278V9.57217Z" stroke="#26DB8D" stroke-width="0.25"/>
<path d="M16.9215 4.2L18.3072 3.4L18.3697 3.50825L19 3.14434L19.6303 3.50825L19.6928 3.4L21.0785 4.2L21.016 4.30825L22.4016 5.10825L22.4641 5L23.8497 5.8L23.7872 5.90825L25.1729 6.70825L25.2354 6.6L26.621 7.4L26.5585 7.50825L27.9442 8.30825L28.0067 8.2L29.3923 9L29.3298 9.10825L30.7154 9.90825L30.7779 9.8L32.1636 10.6L32.1011 10.7083L32.7314 11.0722V11.8H32.8564V13.4H32.7314V15H32.8564V16.6H32.7314V18.2H32.8564V19.8H32.7314V21.4H32.8564V23H32.7314V24.6H32.8564V26.2H32.7314V26.9278L32.1011 27.2917L32.1636 27.4L30.7779 28.2L30.7154 28.0917L29.3298 28.8917L29.3923 29L28.0067 29.8L27.9442 29.6917L26.5585 30.4917L26.621 30.6L25.2354 31.4L25.1729 31.2917L23.7872 32.0917L23.8497 32.2L22.4641 33L22.4016 32.8917L21.016 33.6917L21.0785 33.8L19.6928 34.6L19.6303 34.4917L19 34.8557L18.3697 34.4917L18.3072 34.6L16.9215 33.8L16.984 33.6917L15.5984 32.8917L15.5359 33L14.1503 32.2L14.2128 32.0917L12.8271 31.2917L12.7646 31.4L11.379 30.6L11.4415 30.4917L10.0558 29.6917L9.9933 29.8L8.60767 29L8.67017 28.8917L7.28451 28.0917L7.22201 28.2L5.83637 27.4L5.89887 27.2917L5.26855 26.9278V26.2H5.14355V24.6H5.26855V23H5.14355V21.4H5.26855V19.8H5.14355V18.2H5.26855V16.6H5.14355V15H5.26855V13.4H5.14355V11.8H5.26855V11.0722L5.89887 10.7083L5.83637 10.6L7.22201 9.8L7.28451 9.90825L8.67015 9.10825L8.60765 9L9.9933 8.2L10.0558 8.30825L11.4415 7.50825L11.379 7.4L12.7646 6.6L12.8271 6.70825L14.2128 5.90825L14.1503 5.8L15.5359 5L15.5984 5.10825L16.984 4.30825L16.9215 4.2Z" stroke="white" stroke-width="0.25" stroke-dasharray="1.5 1.5"/>
<path d="M19 26.25C23.0041 26.25 26.25 23.0041 26.25 19C26.25 14.9959 23.0041 11.75 19 11.75C14.9959 11.75 11.75 14.9959 11.75 19C11.75 23.0041 14.9959 26.25 19 26.25Z" stroke="white" stroke-width="1.5" stroke-dasharray="3 3"/>
<defs>
<filter id="filter0_d_525_380" x="2" y="2" width="34" height="34" filterUnits="userSpaceOnUse" color-interpolation-filters="sRGB">
<feFlood flood-opacity="0" result="BackgroundImageFix"/>
<feColorMatrix in="SourceAlpha" type="matrix" values="0 0 0 0 0 0 0 0 0 0 0 0 0 0 0 0 0 0 127 0" result="hardAlpha"/>
<feOffset/>
<feGaussianBlur stdDeviation="6.5"/>
<feComposite in2="hardAlpha" operator="out"/>
<feColorMatrix type="matrix" values="0 0 0 0 0 0 0 0 0 0.626318 0 0 0 0 0.941667 0 0 0 1 0"/>
<feBlend mode="normal" in2="BackgroundImageFix" result="effect1_dropShadow_525_380"/>
<feBlend mode="normal" in="SourceGraphic" in2="effect1_dropShadow_525_380" result="shape"/>
</filter>
</defs>
</svg>
