<svg width="38" height="38" viewBox="0 0 38 38" fill="none" xmlns="http://www.w3.org/2000/svg">
<g clip-path="url(#clip0_525_338)">
<g filter="url(#filter0_d_525_338)">
<path d="M31.6669 19.0001L19 6.33322L6.33313 19.0001L19 31.667L31.6669 19.0001Z" stroke="#0E9DE5" stroke-width="2"/>
</g>
<path d="M31.6666 12.6667L38 19L31.6666 25.3333" stroke="#26DB8D"/>
<path d="M6.33333 25.3333L0 19L6.33333 12.6667" stroke="#26DB8D"/>
<path d="M36.1 29.1333V36.1H29.1333" stroke="white" stroke-width="0.25" stroke-dasharray="1.5 1.5"/>
<path d="M1.90002 8.86666V1.89999H8.86669" stroke="white" stroke-width="0.25" stroke-dasharray="1.5 1.5"/>
<path d="M8.86669 36.1H1.90002V29.1333" stroke="white" stroke-width="0.25" stroke-dasharray="1.5 1.5"/>
<path d="M29.1333 1.89999H36.1V8.86666" stroke="white" stroke-width="0.25" stroke-dasharray="1.5 1.5"/>
<g filter="url(#filter1_d_525_338)">
<path d="M18.9998 23.2223C21.3317 23.2223 23.2221 21.3319 23.2221 19C23.2221 16.6681 21.3317 14.7777 18.9998 14.7777C16.668 14.7777 14.7776 16.6681 14.7776 19C14.7776 21.3319 16.668 23.2223 18.9998 23.2223Z" fill="white"/>
<path d="M18.9999 22.6945C21.0403 22.6945 22.6944 21.0404 22.6944 19C22.6944 16.9596 21.0403 15.3055 18.9999 15.3055C16.9595 15.3055 15.3054 16.9596 15.3054 19C15.3054 21.0404 16.9595 22.6945 18.9999 22.6945Z" stroke="#26DB8D"/>
</g>
</g>
<defs>
<filter id="filter0_d_525_338" x="-11.0811" y="-11.081" width="60.1621" height="60.1622" filterUnits="userSpaceOnUse" color-interpolation-filters="sRGB">
<feFlood flood-opacity="0" result="BackgroundImageFix"/>
<feColorMatrix in="SourceAlpha" type="matrix" values="0 0 0 0 0 0 0 0 0 0 0 0 0 0 0 0 0 0 127 0" result="hardAlpha"/>
<feOffset/>
<feGaussianBlur stdDeviation="8"/>
<feComposite in2="hardAlpha" operator="out"/>
<feColorMatrix type="matrix" values="0 0 0 0 0 0 0 0 0 0.626318 0 0 0 0 0.941667 0 0 0 1 0"/>
<feBlend mode="normal" in2="BackgroundImageFix" result="effect1_dropShadow_525_338"/>
<feBlend mode="normal" in="SourceGraphic" in2="effect1_dropShadow_525_338" result="shape"/>
</filter>
<filter id="filter1_d_525_338" x="-1.22241" y="-1.22226" width="40.4445" height="40.4445" filterUnits="userSpaceOnUse" color-interpolation-filters="sRGB">
<feFlood flood-opacity="0" result="BackgroundImageFix"/>
<feColorMatrix in="SourceAlpha" type="matrix" values="0 0 0 0 0 0 0 0 0 0 0 0 0 0 0 0 0 0 127 0" result="hardAlpha"/>
<feOffset/>
<feGaussianBlur stdDeviation="8"/>
<feComposite in2="hardAlpha" operator="out"/>
<feColorMatrix type="matrix" values="0 0 0 0 0 0 0 0 0 0.626318 0 0 0 0 0.941667 0 0 0 1 0"/>
<feBlend mode="normal" in2="BackgroundImageFix" result="effect1_dropShadow_525_338"/>
<feBlend mode="normal" in="SourceGraphic" in2="effect1_dropShadow_525_338" result="shape"/>
</filter>
<clipPath id="clip0_525_338">
<rect width="38" height="38" fill="white"/>
</clipPath>
</defs>
</svg>
