<svg width="38" height="38" viewBox="0 0 38 38" fill="none" xmlns="http://www.w3.org/2000/svg">
<g clip-path="url(#clip0_525_386)">
<path d="M19 0.826088V37.1739" stroke="white" stroke-width="0.5"/>
<path d="M34.6956 9.91304L3.30432 28.087" stroke="white" stroke-width="0.5"/>
<path d="M34.6956 28.087L3.30432 9.91304" stroke="white" stroke-width="0.5"/>
<path d="M6.92643 7.0426L14.5519 2.69453L14.8448 3.1955L18.9999 0.826088L23.1553 3.19551L23.4481 2.69453L31.0736 7.0426L30.7807 7.54368L34.936 9.91301V14.6519H35.5218V23.3482H34.936V28.0869L30.7807 30.4564L31.0736 30.9574L23.4481 35.3054L23.1553 34.8045L18.9999 37.1739L14.8448 34.8045L14.5519 35.3054L6.92643 30.9574L7.21929 30.4564L3.06399 28.0869V23.3482H2.47827V14.6519H3.06399V9.91301L7.21929 7.54368L6.92643 7.0426Z" stroke="#26DB8D" stroke-dasharray="7 6"/>
<path d="M16.625 -1.29001L18.2083 -2.19179L18.2805 -2.06847L19 -2.47826L19.7195 -2.06847L19.7917 -2.19179L21.375 -1.29001L21.3028 -1.1667L22.8861 -0.264923L22.9583 -0.388229L24.5416 0.513541L24.4695 0.636858L26.0528 1.53863L26.125 1.41532L27.7083 2.3171L27.6361 2.44041L29.2194 3.34219L29.2916 3.21887L30.875 4.12065L30.8029 4.24402L32.3862 5.14572L32.4584 5.02247L34.0417 5.92417L33.9695 6.04753L35.5528 6.94935L35.625 6.82598L37.2083 7.7278L37.1362 7.85105L37.8557 8.26089V9.08047H38V10.884H37.8557V12.6875H38V14.4911H37.8557V16.2946H38V18.0982H37.8557V19.9018H38V21.7053H37.8557V23.5088H38V25.3125H37.8557V27.116H38V28.9195H37.8557V29.7391L37.1362 30.1489L37.2083 30.2722L35.625 31.174L35.5528 31.0506L33.9695 31.9524L34.0417 32.0758L32.4584 32.9775L32.3862 32.8542L30.8029 33.7559L30.875 33.8793L29.2916 34.7811L29.2194 34.6578L27.6361 35.5596L27.7083 35.6828L26.125 36.5846L26.0528 36.4613L24.4695 37.3631L24.5416 37.4864L22.9583 38.3881L22.8861 38.2649L21.3028 39.1666L21.375 39.29L19.7917 40.1918L19.7195 40.0684L19 40.4783L18.2805 40.0684L18.2083 40.1918L16.625 39.29L16.6972 39.1666L15.1138 38.2649L15.0417 38.3881L13.4584 37.4864L13.5305 37.3631L11.9472 36.4613L11.875 36.5846L10.2917 35.6828L10.3639 35.5596L8.78055 34.6578L8.70838 34.7811L7.12494 33.8793L7.19711 33.7559L5.61378 32.8542L5.54161 32.9775L3.95832 32.0758L4.03046 31.9524L2.44717 31.0506L2.375 31.174L0.791663 30.2722L0.863832 30.1489L0.144338 29.7391V28.9195H0V27.116H0.144338V25.3125H0V23.5088H0.144338V21.7053H0V19.9018H0.144338V18.0982H0V16.2946H0.144338V14.4911H0V12.6875H0.144338V10.884H0V9.08047H0.144338V8.26089L0.863832 7.85105L0.791663 7.7278L2.375 6.82598L2.44717 6.94935L4.03046 6.04753L3.95834 5.92417L5.54161 5.02247L5.61378 5.14572L7.19711 4.24402L7.12494 4.12065L8.70838 3.21887L8.78055 3.34219L10.3639 2.44041L10.2917 2.3171L11.875 1.41532L11.9472 1.53863L13.5305 0.636858L13.4584 0.513541L15.0417 -0.388229L15.1138 -0.264923L16.6972 -1.1667L16.625 -1.29001Z" stroke="white" stroke-width="0.25" stroke-dasharray="1.5 1.5"/>
<g filter="url(#filter0_d_525_386)">
<path d="M19 26.3131C23.0389 26.3131 26.3131 23.0389 26.3131 19C26.3131 14.9611 23.0389 11.6869 19 11.6869C14.9611 11.6869 11.6869 14.9611 11.6869 19C11.6869 23.0389 14.9611 26.3131 19 26.3131Z" fill="#0C0C1C"/>
<path d="M19 25.7357C22.7201 25.7357 25.7358 22.72 25.7358 19C25.7358 15.2799 22.7201 12.2642 19 12.2642C15.28 12.2642 12.2643 15.2799 12.2643 19C12.2643 22.72 15.28 25.7357 19 25.7357Z" stroke="#0E9DE5"/>
</g>
<path d="M19 22.3043C20.825 22.3043 22.3044 20.8249 22.3044 19C22.3044 17.1751 20.825 15.6957 19 15.6957C17.1751 15.6957 15.6957 17.1751 15.6957 19C15.6957 20.8249 17.1751 22.3043 19 22.3043Z" fill="white"/>
</g>
<defs>
<filter id="filter0_d_525_386" x="-4.31311" y="-4.31311" width="46.6262" height="46.6262" filterUnits="userSpaceOnUse" color-interpolation-filters="sRGB">
<feFlood flood-opacity="0" result="BackgroundImageFix"/>
<feColorMatrix in="SourceAlpha" type="matrix" values="0 0 0 0 0 0 0 0 0 0 0 0 0 0 0 0 0 0 127 0" result="hardAlpha"/>
<feOffset/>
<feGaussianBlur stdDeviation="8"/>
<feComposite in2="hardAlpha" operator="out"/>
<feColorMatrix type="matrix" values="0 0 0 0 0 0 0 0 0 0.626318 0 0 0 0 0.941667 0 0 0 1 0"/>
<feBlend mode="normal" in2="BackgroundImageFix" result="effect1_dropShadow_525_386"/>
<feBlend mode="normal" in="SourceGraphic" in2="effect1_dropShadow_525_386" result="shape"/>
</filter>
<clipPath id="clip0_525_386">
<rect width="38" height="38" fill="white"/>
</clipPath>
</defs>
</svg>
